<svg version="1.0" xmlns="http://www.w3.org/2000/svg"
 width="655.000000pt" height="641.000000pt" viewBox="0 0 655.000000 641.000000"
 preserveAspectRatio="xMidYMid meet">
<metadata>
Created by potrace 1.16, written by Peter Selinger 2001-2019
</metadata>
<g transform="translate(0.000000,641.000000) scale(0.100000,-0.100000)"
fill="#FFC66E" stroke="none">
<path d="M340 6241 c-73 -23 -143 -85 -177 -158 -17 -36 -18 -183 -18 -2948
l0 -2910 22 -35 c12 -20 40 -46 62 -58 l39 -22 785 2 c776 3 786 3 813 24 59
44 69 67 73 177 6 195 -30 676 -75 1002 -115 821 -339 1500 -651 1968 -46 71
-83 130 -81 131 1 1 35 13 73 26 312 102 660 292 935 510 134 105 400 373 514
515 264 330 499 761 646 1183 l43 122 663 0 664 0 0 -891 c0 -594 3 -897 10
-910 15 -26 75 -26 90 0 7 13 10 323 10 935 l0 914 -26 31 -26 31 -674 0
c-371 0 -674 3 -674 6 0 3 11 49 24 102 13 53 27 109 30 125 l6 27 736 0 c711
0 736 -1 773 -20 22 -11 50 -36 62 -57 l24 -38 3 -1144 c2 -818 5 -1148 13
-1158 16 -19 63 -16 83 6 15 17 16 104 14 1167 l-3 1149 -24 45 c-30 58 -76
106 -126 133 l-40 22 -2295 2 c-1262 1 -2306 -2 -2320 -6z m784 -153 c-3 -29
-17 -125 -30 -213 -20 -142 -21 -163 -8 -182 18 -28 55 -30 77 -5 15 17 35
131 73 410 l5 42 525 0 c412 0 524 -3 524 -12 0 -29 -63 -259 -111 -405 -62
-190 -140 -386 -216 -546 -48 -100 -55 -122 -47 -145 8 -22 16 -28 46 -30 36
-3 38 -2 68 57 63 127 183 419 240 589 58 174 130 434 130 472 0 20 10 20 464
20 l464 0 -14 -62 c-8 -35 -24 -94 -35 -133 -280 -966 -840 -1734 -1574 -2160
-247 -143 -570 -272 -712 -284 -76 -6 -99 -2 -73 14 21 13 287 303 382 418
216 259 548 745 548 803 0 25 -29 54 -55 54 -28 0 -40 -14 -105 -125 -195
-331 -473 -686 -779 -997 l-164 -168 -97 0 -97 0 63 168 c34 92 87 238 116
324 52 154 52 157 34 177 -19 21 -51 27 -73 13 -6 -4 -43 -97 -82 -207 -39
-110 -95 -262 -124 -338 l-53 -139 -89 0 -90 0 -3 1249 c-2 1110 -1 1253 13
1289 17 45 34 64 80 88 26 14 85 16 408 16 l378 0 -7 -52z m-544 -2750 c27
-126 111 -582 145 -783 21 -121 42 -226 47 -232 14 -18 63 -16 82 3 9 8 16 18
16 21 0 35 -167 951 -186 1021 l-6 22 161 0 161 0 41 -52 c165 -207 332 -544
459 -928 191 -575 305 -1258 327 -1945 5 -191 4 -212 -11 -228 -16 -15 -50
-17 -377 -17 l-359 0 0 103 c0 281 -47 852 -110 1337 -38 294 -43 325 -58 343
-29 33 -92 12 -92 -31 0 -9 11 -96 24 -192 70 -502 126 -1138 126 -1437 l0
-123 -344 0 -345 0 -15 22 c-14 20 -16 186 -16 1579 0 855 3 1559 7 1562 3 4
75 7 159 7 l152 0 12 -52z"/>
<path d="M1020 5406 c-6 -8 -24 -73 -40 -143 -41 -185 -104 -433 -161 -631
-52 -181 -53 -203 -9 -217 39 -12 58 4 79 68 71 220 221 820 221 886 0 15 -5
32 -12 39 -17 17 -63 15 -78 -2z"/>
<path d="M2539 3592 c-39 -20 -62 -41 -84 -77 l-30 -48 -3 -341 -3 -341 146
-214 c79 -118 152 -222 161 -233 16 -17 38 -18 299 -18 256 0 283 2 297 18 8
9 68 113 134 230 80 144 128 221 149 235 29 22 37 22 477 25 494 3 528 0 638
-59 105 -56 197 -164 242 -284 21 -58 22 -75 28 -528 l5 -469 28 -24 28 -24
412 0 c455 0 457 0 457 -60 0 -63 60 -60 -1076 -60 -986 0 -1032 -1 -1047 -18
-15 -16 -17 -51 -17 -285 l0 -267 -26 -17 c-24 -15 -29 -15 -53 -2 l-26 15 -5
277 c-4 232 -7 279 -20 287 -9 6 -234 10 -558 10 -602 0 -587 2 -638 -66 l-29
-37 -3 -323 c-2 -285 -1 -324 13 -338 15 -15 175 -16 1820 -16 1626 0 1805 2
1819 16 14 14 16 104 16 840 0 811 0 824 20 844 24 24 49 25 76 6 17 -13 19
-31 24 -223 4 -183 7 -208 22 -211 20 -4 179 73 196 95 16 22 18 874 2 904
-14 25 -165 101 -193 97 -22 -3 -22 -7 -27 -206 -5 -199 -6 -204 -29 -223 -30
-24 -46 -24 -71 1 -19 19 -20 33 -20 493 0 527 1 516 -71 584 -71 68 37 63
-1508 63 l-1400 0 -15 -22 c-14 -20 -16 -87 -16 -536 0 -335 -4 -520 -10 -533
-13 -23 -62 -26 -84 -3 -14 14 -16 76 -16 539 0 463 -2 525 -16 539 -13 13
-45 16 -189 16 -170 0 -174 0 -226 -28z m3108 -120 c223 -114 166 -443 -80
-469 -178 -18 -321 156 -263 320 53 147 212 216 343 149z m45 -774 c79 -36
142 -98 181 -177 29 -59 32 -74 32 -156 0 -133 -45 -227 -145 -300 -97 -71
-216 -91 -329 -56 -291 91 -352 482 -102 656 104 71 250 85 363 33z m-2262
-1758 c24 -24 25 -38 4 -68 l-15 -22 -393 0 c-291 0 -395 3 -404 12 -17 17
-15 64 4 82 13 14 64 16 400 16 371 0 385 -1 404 -20z m2062 3 c20 -18 24 -63
6 -81 -9 -9 -112 -12 -402 -12 -348 0 -391 2 -408 17 -24 21 -23 48 2 73 19
19 33 20 402 20 341 0 383 -2 400 -17z"/>
<path d="M5449 3341 c-38 -37 -45 -60 -39 -116 7 -67 86 -122 155 -109 72 13
124 96 104 167 -19 64 -63 97 -132 97 -44 0 -54 -4 -88 -39z"/>
<path d="M5451 2603 c-26 -9 -65 -36 -92 -63 -123 -123 -93 -320 61 -404 139
-76 315 -5 364 146 20 63 20 90 0 157 -11 38 -29 67 -63 101 -75 75 -172 98
-270 63z"/>
<path d="M2852 2194 c-19 -13 -22 -24 -22 -92 0 -42 5 -84 10 -92 7 -12 43
-16 167 -21 l158 -7 28 26 c25 23 27 32 27 97 0 105 -1 105 -191 105 -124 0
-159 -3 -177 -16z"/>
<path d="M2987 1852 c-13 -15 -17 -39 -17 -116 0 -115 8 -136 53 -136 52 0 57
12 57 131 0 84 -3 111 -16 123 -21 21 -57 20 -77 -2z"/>
<path d="M2542 418 c-22 -22 -13 -39 59 -119 l71 -79 1693 0 c1526 0 1695 2
1709 16 12 11 16 35 16 89 0 65 -3 76 -22 89 -20 14 -204 16 -1768 16 -1345 0
-1749 -3 -1758 -12z"/>
</g>
</svg>
