
<svg version="1.0" xmlns="http://www.w3.org/2000/svg"
 width="200.000000pt" height="200.000000pt" viewBox="0 0 200.000000 200.000000"
 preserveAspectRatio="xMidYMid meet">

<g transform="translate(0.000000,200.000000) scale(0.100000,-0.100000)"
fill="#FFC66E" stroke="none">
<path d="M1617 1865 c-16 -14 -33 -23 -38 -20 -5 3 -192 6 -416 6 -286 0 -412
4 -421 12 -9 7 -16 7 -20 0 -9 -13 -382 -27 -382 -13 0 5 -9 14 -20 20 -53 28
-86 -92 -35 -126 23 -15 27 -15 50 0 30 20 151 23 158 4 3 -10 7 -10 18 -2 8
6 61 14 119 17 94 6 103 5 86 -8 -36 -27 -117 -32 -181 -10 -19 6 -19 6 -1 -9
25 -20 114 -30 150 -16 16 6 31 9 33 7 2 -3 4 -38 5 -80 0 -41 5 -81 10 -88 5
-9 7 25 6 89 -2 56 -2 102 -1 102 2 0 17 -9 35 -20 37 -22 116 -27 150 -9 11
6 23 8 26 4 4 -4 8 -39 8 -78 2 -105 5 -119 15 -57 5 30 6 76 3 103 -3 26 -4
47 -1 47 16 0 63 -32 69 -47 6 -17 7 -17 7 0 1 11 9 17 24 17 12 1 38 7 58 14
33 12 40 11 80 -11 50 -26 120 -30 161 -9 17 9 30 10 36 4 6 -6 8 -71 5 -161
-11 -376 35 -1296 68 -1359 8 -14 2 -16 -54 -11 -81 7 -106 20 -131 68 -18 35
-21 59 -22 195 0 85 -6 209 -13 275 -10 100 -10 150 3 305 25 296 18 416 -9
164 -18 -158 -19 -248 -13 -625 6 -309 12 -357 50 -383 19 -14 19 -15 -18 -25
-62 -17 -113 -13 -209 18 l-90 29 -7 84 c-3 45 -7 153 -7 238 -1 85 -8 202
-16 260 -8 58 -15 175 -16 260 l-2 155 -9 -115 c-6 -72 -5 -171 1 -265 6 -82
10 -233 10 -335 0 -133 4 -200 15 -240 8 -30 14 -55 13 -56 -14 -8 -146 -34
-175 -34 -67 0 -76 14 -67 106 5 43 7 122 5 174 -2 52 -4 120 -3 150 3 274 0
797 -6 885 -4 68 -9 -150 -14 -566 -4 -372 -5 -689 -1 -703 l6 -27 -37 15
c-47 20 -79 20 -109 1 -21 -14 -25 -14 -36 0 -10 12 -10 54 0 207 14 210 8
795 -8 883 -5 28 -13 86 -17 130 -4 44 -10 73 -13 66 -3 -8 3 -144 13 -302 17
-261 18 -311 5 -565 -19 -382 -18 -415 3 -447 16 -25 18 -26 52 -12 44 19 77
19 169 -1 73 -16 77 -16 153 6 l78 22 96 -31 c116 -38 141 -38 244 -5 67 22
92 25 151 20 39 -3 79 -8 88 -12 13 -5 11 3 -9 42 -20 41 -27 72 -35 184 -35
462 -62 1053 -58 1245 l3 150 95 7 c62 4 99 3 108 -4 9 -8 20 -8 39 1 23 10
25 16 20 52 -5 42 -22 69 -41 69 -6 0 -24 -12 -39 -25z m53 -46 c0 -16 -5 -29
-10 -29 -14 0 -32 50 -25 68 9 23 35 -6 35 -39z m-1342 -17 c2 -31 -1 -44 -13
-48 -23 -9 -45 15 -45 51 0 38 7 47 35 43 16 -2 21 -12 23 -46z m172 3 c0 -24
-2 -25 -75 -25 -73 0 -75 1 -75 25 0 24 2 25 75 25 73 0 75 -1 75 -25z m246
14 c12 -20 -11 -27 -118 -31 -108 -5 -108 -5 -108 19 0 23 1 23 109 23 68 0
112 -4 117 -11z m428 -4 c4 -13 -9 -15 -89 -15 -86 0 -115 7 -98 24 3 3 46 6
94 6 68 0 88 -3 93 -15z m226 0 c0 -13 -16 -15 -102 -13 -70 2 -103 7 -106 16
-3 9 22 12 102 12 89 0 106 -3 106 -15z m196 0 c-28 -21 -162 -21 -170 0 -4
13 9 15 92 15 87 -1 95 -2 78 -15z m-636 -5 c0 -6 -38 -10 -95 -10 -57 0 -95
4 -95 10 0 6 38 10 95 10 57 0 95 -4 95 -10z m-24 -55 c-31 -23 -98 -29 -139
-11 -20 8 -37 17 -37 20 0 4 44 6 98 6 86 -1 95 -2 78 -15z m214 0 c-33 -19
-121 -19 -146 0 -17 13 -10 14 76 14 87 0 93 -1 70 -14z m260 4 c0 -17 -67
-39 -122 -39 -54 0 -104 22 -93 41 9 13 215 12 215 -2z"/>
<path d="M1181 1484 c1 -120 5 -244 9 -274 5 -31 6 62 3 215 -3 149 -7 272 -9
274 -2 2 -4 -94 -3 -215z"/>
<path d="M493 1575 c0 -38 2 -53 4 -32 2 20 2 52 0 70 -2 17 -4 1 -4 -38z"/>
<path d="M1052 1615 c0 -16 2 -22 5 -12 2 9 2 23 0 30 -3 6 -5 -1 -5 -18z"/>
<path d="M803 1580 c0 -25 2 -35 4 -22 2 12 2 32 0 45 -2 12 -4 2 -4 -23z"/>
<path d="M817 1345 c7 -192 7 -174 4 -392 -1 -89 2 -169 6 -178 12 -20 7 510
-6 640 -8 87 -9 78 -4 -70z"/>
<path d="M1055 1378 c-11 -88 -1 -796 11 -808 7 -7 10 117 8 420 -1 237 -4
433 -7 436 -3 3 -8 -18 -12 -48z"/>
<path d="M587 1048 c2 -169 8 -320 12 -335 13 -47 20 219 9 331 -5 55 -14 148
-18 206 -5 68 -7 -2 -3 -202z"/>
<path d="M933 1250 c0 -30 2 -43 4 -27 2 15 2 39 0 55 -2 15 -4 2 -4 -28z"/>
<path d="M841 594 c0 -11 3 -14 6 -6 3 7 2 16 -1 19 -3 4 -6 -2 -5 -13z"/>
<path d="M1151 430 c-1 -159 1 -178 19 -205 23 -35 26 -29 5 11 -12 23 -14 54
-9 159 3 74 2 147 -4 170 -8 31 -10 2 -11 -135z"/>
<path d="M1333 555 c0 -22 2 -30 4 -17 2 12 2 30 0 40 -3 9 -5 -1 -4 -23z"/>
<path d="M831 525 c-1 -77 16 -176 34 -194 15 -15 15 -14 5 14 -7 17 -18 75
-25 130 -10 76 -13 88 -14 50z"/>
<path d="M1346 430 c5 -94 17 -146 37 -174 23 -32 26 -4 6 59 -11 33 -26 92
-34 130 l-14 70 5 -85z"/>
</g>
</svg>
