<svg version="1.0" xmlns="http://www.w3.org/2000/svg"
 width="200.000000pt" height="200.000000pt" viewBox="0 0 200.000000 200.000000"
 preserveAspectRatio="xMidYMid meet">

<g transform="translate(0.000000,200.000000) scale(0.100000,-0.100000)"
fill="#FFC66E" stroke="none">
<path d="M104 1777 c-3 -8 -4 -52 -2 -98 l3 -84 128 -3 127 -3 0 -29 0 -29
-71 -3 -71 -3 -34 -85 c-36 -90 -37 -110 -4 -110 25 0 25 2 -5 -72 -28 -68
-27 -88 5 -88 25 0 25 2 -5 -72 -28 -68 -27 -88 5 -88 25 0 25 2 -5 -72 -28
-68 -27 -88 5 -88 25 0 25 2 -5 -72 -28 -68 -27 -88 5 -88 25 0 25 2 -5 -72
-28 -68 -27 -88 5 -88 25 0 25 2 -5 -72 -28 -68 -27 -88 5 -88 25 0 25 2 -5
-72 -14 -35 -23 -68 -21 -75 8 -19 1384 -19 1392 0 2 7 -7 40 -21 75 -30 74
-30 72 -5 72 32 0 33 20 5 88 -30 74 -30 72 -5 72 32 0 33 20 5 88 -30 74 -30
72 -5 72 32 0 33 20 5 88 -30 74 -30 72 -5 72 32 0 33 20 5 88 -30 74 -30 72
-5 72 32 0 33 20 5 88 -30 74 -30 72 -5 72 32 0 33 20 5 88 -30 74 -30 72 -5
72 33 0 32 20 -4 110 l-34 85 -71 3 -71 3 0 29 0 30 190 0 190 0 0 -255 c0
-163 -4 -255 -10 -255 -5 0 -10 -13 -10 -29 0 -32 23 -47 54 -35 17 7 23 64 6
64 -6 0 -10 92 -10 255 l0 255 40 0 40 0 0 -475 c0 -310 -3 -475 -10 -475 -5
0 -10 -13 -10 -29 0 -32 23 -47 54 -35 17 7 23 64 6 64 -7 0 -10 165 -10 474
0 468 0 474 20 479 19 5 21 12 18 99 l-3 93 -893 3 c-738 2 -893 0 -898 -11z
m1756 -87 l0 -60 -860 0 -860 0 0 60 0 60 860 0 860 0 0 -60z m-540 -130 l0
-30 -470 0 -470 0 0 30 0 30 470 0 470 0 0 -30z m-960 -130 l0 -60 -80 0 -80
0 21 52 c28 71 24 68 85 68 l54 0 0 -60z m960 0 l0 -60 -470 0 -470 0 0 60 0
60 470 0 470 0 0 -60z m134 52 c2 -4 14 -31 25 -60 l21 -52 -80 0 -80 0 0 60
0 60 54 0 c30 0 57 -4 60 -8z m-1094 -212 l0 -60 -80 0 -80 0 21 52 c28 71 24
68 85 68 l54 0 0 -60z m960 0 l0 -60 -470 0 -470 0 0 60 0 60 470 0 470 0 0
-60z m134 52 c2 -4 14 -31 25 -60 l21 -52 -80 0 -80 0 0 60 0 60 54 0 c30 0
57 -4 60 -8z m-1094 -212 l0 -60 -80 0 -80 0 21 52 c28 71 24 68 85 68 l54 0
0 -60z m960 0 l0 -60 -470 0 -470 0 0 60 0 60 470 0 470 0 0 -60z m134 52 c2
-4 14 -31 25 -60 l21 -52 -80 0 -80 0 0 60 0 60 54 0 c30 0 57 -4 60 -8z
m-1094 -212 l0 -60 -80 0 -80 0 21 52 c28 71 24 68 85 68 l54 0 0 -60z m960 0
l0 -60 -470 0 -470 0 0 60 0 60 470 0 470 0 0 -60z m134 52 c2 -4 14 -31 25
-60 l21 -52 -80 0 -80 0 0 60 0 60 54 0 c30 0 57 -4 60 -8z m-1094 -212 l0
-60 -80 0 -80 0 21 52 c28 71 24 68 85 68 l54 0 0 -60z m960 0 l0 -60 -470 0
-470 0 0 60 0 60 470 0 470 0 0 -60z m134 52 c2 -4 14 -31 25 -60 l21 -52 -80
0 -80 0 0 60 0 60 54 0 c30 0 57 -4 60 -8z m-1094 -212 l0 -60 -80 0 -80 0 21
52 c28 71 24 68 85 68 l54 0 0 -60z m960 0 l0 -60 -470 0 -470 0 0 60 0 60
470 0 470 0 0 -60z m134 52 c2 -4 14 -31 25 -60 l21 -52 -80 0 -80 0 0 60 0
60 54 0 c30 0 57 -4 60 -8z m-1094 -212 l0 -60 -80 0 -80 0 21 52 c28 71 24
68 85 68 l54 0 0 -60z m960 0 l0 -60 -470 0 -470 0 0 60 0 60 470 0 470 0 0
-60z m134 52 c2 -4 14 -31 25 -60 l21 -52 -80 0 -80 0 0 60 0 60 54 0 c30 0
57 -4 60 -8z m-1094 -212 l0 -60 -80 0 -80 0 21 52 c28 71 24 68 85 68 l54 0
0 -60z m960 0 l0 -60 -470 0 -470 0 0 60 0 60 470 0 470 0 0 -60z m134 52 c2
-4 14 -31 25 -60 l21 -52 -80 0 -80 0 0 60 0 60 54 0 c30 0 57 -4 60 -8z"/>
</g>
</svg>
