<svg xmlns:xlink="http://www.w3.org/1999/xlink" data-name="Слой 2" xmlns="http://www.w3.org/2000/svg" viewBox="0 0 38 38" width="38" height="38" data-prefix="iomjyhibi"><g stroke-linecap="round" stroke-linejoin="round" stroke-width="2px" data-name="Слой 1"><path d="M21 36.9c-.66.06-1.32.1-2 .1-9.94 0-18-8.06-18-18S9.06 1 19 1c7.84 0 14.5 5 16.96 12M15 25H2.04M2.04 13H19" fill="none" class="path-il67otbb4" stroke="#FFC66E" stroke-width="2px"></path><path d="M16.94 1.12A42.618 42.618 0 0 0 13 19c0 3.69.48 10.41 3.94 17.88M24.22 11c-.82-4.34-2.16-7.72-3.16-9.88" fill="none" class="path-iw8rcj9nu" stroke="#FFC66E" stroke-width="2px"></path><g stroke-width="2px"><path d="M37 25.21C37 29.75 29 37 29 37s-8-7.25-8-11.79S24.58 17 29 17s8 3.68 8 8.21z" fill="none" class="path-imew3vfq1" stroke="#FFC66E" stroke-width="2px"></path><circle cx="29" cy="25" r="3" fill="none" class="circle-ixv4rua5j" stroke="#FFC66E" stroke-width="2px"></circle></g></g></svg>