
<svg version="1.0" xmlns="http://www.w3.org/2000/svg"
 width="900.000000pt" height="870.000000pt" viewBox="0 0 900.000000 870.000000"
 preserveAspectRatio="xMidYMid meet">

<g transform="translate(0.000000,870.000000) scale(0.100000,-0.100000)"
fill="#000000" stroke="none">
<path d="M191 8542 c-19 -9 -44 -30 -55 -45 -20 -27 -21 -42 -24 -415 -2 -370
-1 -388 17 -419 37 -59 61 -67 210 -73 l136 -5 5 -3680 c5 -3544 6 -3682 23
-3709 20 -30 88 -65 126 -66 46 0 110 39 131 81 20 37 20 65 20 1359 l0 1320
349 0 350 0 73 -59 c267 -214 516 -568 672 -951 168 -416 240 -807 253 -1373
6 -261 7 -281 27 -309 61 -90 181 -87 250 6 20 26 21 40 21 319 -1 449 -47
790 -159 1159 -20 65 -36 120 -36 123 0 3 851 5 1891 5 1603 0 1890 -2 1886
-14 -24 -63 -91 -323 -116 -447 -60 -309 -81 -532 -81 -871 0 -208 2 -232 20
-267 39 -77 157 -103 224 -50 51 40 56 63 56 266 0 733 147 1333 449 1840 121
203 313 430 478 564 l71 59 341 0 341 0 2 -1322 c3 -1303 3 -1324 23 -1357 32
-55 69 -76 130 -76 58 0 91 18 129 69 l21 27 3 3679 2 3679 154 3 c173 3 191
10 228 78 17 33 18 60 16 415 -3 375 -3 380 -25 411 -13 17 -38 39 -57 48 -31
15 -384 16 -4288 16 -4029 0 -4255 -1 -4287 -18z m8354 -467 l0 -180 -4067 -3
-4068 -2 0 178 c0 98 3 182 7 185 3 4 1834 6 4067 5 l4061 -3 0 -180z m-4245
-497 c0 -30 -74 -377 -116 -543 -177 -708 -463 -1424 -789 -1975 -78 -132
-286 -450 -295 -450 -9 0 -106 150 -133 205 -25 52 -71 187 -82 240 -3 17 -12
88 -19 158 -11 111 -16 131 -37 153 -52 56 -124 69 -188 36 -61 -30 -73 -58
-83 -184 -21 -269 -116 -492 -284 -663 -173 -175 -365 -265 -610 -285 -114 -9
-137 -18 -178 -74 -29 -38 -29 -124 0 -162 41 -56 64 -65 180 -75 216 -17 395
-91 550 -228 l38 -34 -30 -24 c-193 -157 -472 -341 -664 -438 l-69 -35 -338 0
c-186 0 -346 0 -355 0 -17 0 -18 111 -18 2195 l0 2195 1760 0 c1401 0 1760 -3
1760 -12z m3840 -2188 l0 -2195 -322 -3 c-178 -1 -337 0 -354 3 -39 7 -306
155 -454 252 -987 649 -1733 1772 -2156 3251 -85 297 -194 785 -194 869 l0 23
1740 -2 1740 -3 0 -2195z m-3830 -661 c-5 -899 -10 -1856 -10 -2126 l0 -493
-920 0 -920 0 -49 99 c-143 285 -318 530 -521 730 -47 46 -80 86 -73 88 6 2
72 41 146 87 140 86 257 167 394 273 94 72 82 77 131 -48 39 -97 61 -200 71
-332 6 -82 13 -114 27 -134 45 -61 140 -81 202 -43 52 32 69 71 77 174 8 108
29 218 57 301 105 305 366 552 667 630 35 9 111 20 167 25 71 5 114 14 135 26
64 38 88 134 50 204 -29 55 -69 73 -187 81 -126 9 -233 37 -340 91 l-82 40
103 152 c264 388 518 873 705 1346 45 115 139 373 166 459 2 8 7 12 10 9 2 -3
0 -741 -6 -1639z m343 1578 c10 -34 53 -154 94 -267 283 -770 640 -1407 1104
-1965 111 -135 459 -481 589 -586 202 -165 405 -307 598 -418 l91 -53 -96 -97
c-187 -188 -345 -408 -478 -664 l-77 -147 -940 0 -941 0 6 758 c4 416 10 1375
13 2130 4 754 10 1372 13 1372 3 0 14 -28 24 -63z m-1875 -1772 c101 -153 231
-285 368 -372 l74 -46 -68 -45 c-163 -107 -295 -243 -397 -409 -40 -67 -49
-73 -59 -46 -4 10 -33 56 -64 103 -71 106 -222 258 -327 329 -44 30 -83 57
-88 61 -4 3 30 32 75 63 46 30 116 86 155 122 72 66 200 226 238 298 11 20 23
36 27 35 3 -2 33 -43 66 -93z"/>
<path d="M6440 7288 c-65 -33 -80 -68 -91 -199 -23 -293 -182 -540 -429 -668
-99 -51 -164 -70 -283 -81 -140 -12 -194 -50 -204 -143 -4 -35 0 -54 18 -86
31 -56 81 -77 192 -84 100 -7 225 -46 315 -98 31 -19 100 -77 152 -129 79 -78
104 -111 142 -185 62 -121 87 -208 97 -337 12 -151 48 -205 143 -215 99 -11
168 63 168 181 0 127 56 309 132 426 23 36 79 102 125 147 70 69 100 91 186
133 107 52 211 80 300 80 106 1 177 60 177 148 0 108 -53 150 -203 163 -201
16 -356 93 -498 247 -135 146 -201 306 -218 523 -6 75 -13 107 -28 126 -51 69
-122 88 -193 51z m120 -790 c54 -85 172 -207 258 -267 34 -24 62 -47 62 -50 0
-3 -20 -17 -43 -31 -60 -36 -256 -236 -292 -298 -16 -28 -33 -52 -37 -52 -3 0
-25 28 -49 63 -69 102 -146 184 -240 254 -49 36 -89 67 -89 68 0 1 26 19 57
40 78 52 207 184 267 273 27 39 52 72 55 71 3 0 26 -32 51 -71z"/>
</g>
</svg>
