<?xml version="1.0" encoding="utf-8"?>
<!-- Svg Vector Icons : http://www.onlinewebfonts.com/icon -->
<!DOCTYPE svg PUBLIC "-//W3C//DTD SVG 1.1//EN" "http://www.w3.org/Graphics/SVG/1.1/DTD/svg11.dtd">
<svg version="1.1" xmlns="http://www.w3.org/2000/svg" xmlns:xlink="http://www.w3.org/1999/xlink" x="0px" y="0px" viewBox="0 0 256 256" enable-background="new 0 0 256 256" xml:space="preserve">
<metadata> Svg Vector Icons : http://www.onlinewebfonts.com/icon </metadata>
<g><g><g><g><path stroke-width="4" fill-opacity="0" stroke="#000000"  d="M240.1,38.9h-9.6v11.5h9.6c3.1,0,5.9-2.5,5.9-5.9C246,41.6,243.5,38.9,240.1,38.9z"/><path stroke-width="4" fill-opacity="0" stroke="#000000"  d="M25.4,38.9h-9.4c-3.1,0-5.9,2.5-5.9,5.9c0,3.1,2.5,5.9,5.9,5.9h9.6V38.9H25.4z"/><path stroke-width="4" fill-opacity="0" stroke="#000000"  d="M122.1 38.9h11.5v11.5h-11.5z"/><path stroke-width="4" fill-opacity="0" stroke="#000000"  d="M29.3,222.6c0,3.1,4.1,5.9,8,5.9c3.9,0,6.4-1.6,7.4-3.9c0.2-0.6,0.4-1.2,0.4-2c0,0.6,0.2,1.4,0.6,2c1.6,2.3,5.3,3.9,9,3.9c3.7,0,7.6-1.6,9-3.9c0.4-0.6,0.6-1.2,0.6-2c0,0.6,0.2,1.4,0.6,2c1.6,2.3,5.3,3.9,9,3.9c3.7,0,7.6-1.6,9-3.9c0.4-0.6,0.6-1.2,0.6-2c0,0.6,0.2,1.4,0.6,2c1.6,2.3,5.3,3.9,9,3.9c3.7,0,7.6-1.6,9-3.9c0.4-0.6,0.6-1.2,0.6-2c0,0.6,0.2,1.4,0.4,2c1,2.3,3.5,3.9,7.4,3.9c3.7,0,6.4-1.6,7.4-3.9c0.2-0.6,0.4-1.2,0.4-2v-2V65c-1.2,0.6-2.7,1-3.9,1c-0.4,0-0.6,0-1,0c-2-0.2-3.5-1.2-4.9-2.5c-0.2,0.2-0.4,0.4-0.6,0.6c-1.4,1.4-3.1,2.3-5.3,2.3c-0.4,0-0.6,0-1,0c-2-0.2-3.5-1.2-4.9-2.5c-0.2,0.2-0.4,0.4-0.6,0.6c-0.2,1-2.3,1.9-4.1,1.9c-0.4,0-0.6,0-1,0c-2-0.2-3.5-1.2-4.9-2.5c-0.2,0.2-0.4,0.4-0.6,0.6c-1.4,1.2-3.1,2-5.1,2c-0.4,0-0.6,0-1,0c-2-0.2-3.5-1.2-4.9-2.5c-0.2,0.2-0.4,0.4-0.6,0.6c-1.4,1.4-3.1,2.3-5.3,2.3c-0.4,0-0.6,0-1,0c-2-0.2-3.5-1.2-4.9-2.5c-0.2,0.2-0.4,0.4-0.6,0.6c-1.4,1.4-3.1,2.3-5.3,2.3c-0.4,0-0.6,0-1,0c-2-0.2-3.5-1.2-4.9-2.5c0-0.2-0.2,0-0.2,0.2c-1.4,1.4-3.1,2.3-5.3,2.3c-0.4,0-0.6,0-1,0c-2-0.2-3.5-1.2-4.9-2.5c-0.2,0.2-0.4,0.4-0.6,0.6c-1.4,1.4-3.1,2.3-5.3,2.3c-0.4,0-0.6,0-1,0c-1-0.2-2-0.4-2.9-1c0,0.8,0,0.8,0,0.8L29.3,222.6L29.3,222.6z"/><path stroke-width="4" fill-opacity="0" stroke="#000000"  d="M137.5,222.6c0,3.1,4.1,5.9,7.8,5.9c3.7,0,6.4-1.6,7.4-3.9c0.2-0.6,0.4-1.2,0.4-2c0,0.6,0.2,1.4,0.6,2c1.6,2.3,5.3,3.9,9,3.9c3.7,0,7.6-1.6,9-3.9c0.4-0.6,0.6-1.2,0.6-2c0,0.6,0.2,1.4,0.6,2c1.6,2.3,5.3,3.9,9,3.9c3.7,0,7.6-1.6,9-3.9c0.4-0.6,0.6-1.2,0.6-2c0,0.6,0.2,1.4,0.6,2c1.6,2.3,5.3,3.9,9,3.9c3.7,0,7.6-1.6,9-3.9c0.4-0.6,0.6-1.2,0.6-2c0,0.6,0.2,1.4,0.4,2c1,2.3,3.5,3.9,7.4,3.9c3.7,0,6.4-1.6,7.4-3.9c0.2-0.6,0.4-1.2,0.4-2v-2V65c-1.2,0.6-2.7,1-3.9,1c-0.4,0-0.6,0-1,0c-2-0.2-3.5-1.2-4.9-2.5c-0.2,0.2-0.4,0.4-0.6,0.6c-1.4,1.4-3.1,2.3-5.3,2.3c-0.4,0-0.6,0-1,0c-2-0.2-3.5-1.2-4.9-2.5c-0.2,0.2-0.4,0.4-0.6,0.6c-0.2,1-2.3,1.9-4.1,1.9c-0.4,0-0.6,0-1,0c-2-0.2-3.5-1.2-4.9-2.5c-0.2,0.2-0.4,0.4-0.6,0.6c-1.4,1.2-3.1,2-5.1,2c-0.4,0-0.6,0-1,0c-2-0.2-3.5-1.2-4.9-2.5c-0.2,0.2-0.4,0.4-0.6,0.6c-1.4,1.4-3.1,2.3-5.3,2.3c-0.4,0-0.6,0-1,0c-2-0.2-3.5-1.2-4.9-2.5c-0.2,0.2-0.4,0.4-0.6,0.6c-1.4,1.4-3.1,2.3-5.3,2.3c-0.4,0-0.6,0-1,0c-2-0.2-3.5-1.2-4.9-2.5c0-0.2-0.2,0-0.2,0.2c-1.4,1.4-3.1,2.3-5.3,2.3c-0.4,0-0.6,0-1,0c-2-0.2-3.5-1.2-4.9-2.5c-0.2,0.2-0.4,0.4-0.6,0.6c-1.4,1.4-3.1,2.3-5.3,2.3c-0.4,0-0.6,0-1,0c-1-0.2-2-0.4-2.9-1c0,0.8,0,0.8,0,0.8L137.5,222.6L137.5,222.6z"/><g><path stroke-width="4" fill-opacity="0" stroke="#000000"  d="M33.4,27.4c-2,0-3.5,1.4-3.7,3.1v27.9c0,2.3,1.9,3.9,3.7,3.9c1.9,0,3.9-1.9,3.9-3.9V31.1C37.1,29.3,35.2,27.4,33.4,27.4z"/><path stroke-width="4" fill-opacity="0" stroke="#000000"  d="M44.8,27.4c-2,0-3.5,1.4-3.7,3.1v27.9c0,2.3,1.9,3.9,3.7,3.9c1.9,0,3.9-1.9,3.9-3.9V31.1C48.6,29.3,46.9,27.4,44.8,27.4z"/><path stroke-width="4" fill-opacity="0" stroke="#000000"  d="M56.3,27.4c-2,0-3.5,1.4-3.7,3.1v27.9c0,2.3,1.9,3.9,3.7,3.9c1.9,0,3.9-1.9,3.9-3.9V31.1C60.2,29.3,58.6,27.4,56.3,27.4z"/><path stroke-width="4" fill-opacity="0" stroke="#000000"  d="M68,27.4c-2,0-3.5,1.4-3.7,3.1v27.9c0,2.3,1.9,3.9,3.7,3.9c2,0,3.9-1.9,3.9-3.9V31.1C71.9,29.3,70.1,27.4,68,27.4z"/><path stroke-width="4" fill-opacity="0" stroke="#000000"  d="M79.5,27.4c-2,0-3.5,1.4-3.7,3.1v27.9c0,2.3,1.9,3.9,3.7,3.9c2,0,3.9-1.9,3.9-3.9V31.1C83.4,29.3,81.8,27.4,79.5,27.4z"/><path stroke-width="4" fill-opacity="0" stroke="#000000"  d="M91.2,27.4c-2,0-3.5,1.4-3.7,3.1v27.9c0,2.3,1.9,3.9,3.7,3.9c2.3,0,3.9-1.9,3.9-3.9V31.1C95.1,29.3,93.4,27.4,91.2,27.4z"/><path stroke-width="4" fill-opacity="0" stroke="#000000"  d="M102.9,27.4c-2,0-3.5,1.4-3.7,3.1v27.9c0,2.3,1.9,3.9,3.7,3.9c2,0,3.9-1.9,3.9-3.9V31.1C106.8,29.3,104.9,27.4,102.9,27.4z"/><path stroke-width="4" fill-opacity="0" stroke="#000000"  d="M114.4,27.4c-2,0-3.5,1.4-3.7,3.1v27.9c0,2.3,1.9,3.9,3.7,3.9c2.3,0,3.9-1.9,3.9-3.9V31.1C118.3,29.3,116.6,27.4,114.4,27.4z"/></g><g><path stroke-width="4" fill-opacity="0" stroke="#000000"  d="M141.2,27.4c-2,0-3.5,1.4-3.7,3.1v27.9c0,2.3,1.9,3.9,3.7,3.9c1.9,0,3.9-1.9,3.9-3.9V31.1C145.1,29.3,143.3,27.4,141.2,27.4z"/><path stroke-width="4" fill-opacity="0" stroke="#000000"  d="M152.7,27.4c-2,0-3.5,1.4-3.7,3.1v27.9c0,2.3,1.9,3.9,3.7,3.9c2,0,3.9-1.9,3.9-3.9V31.1C156.6,29.3,155,27.4,152.7,27.4z"/><path stroke-width="4" fill-opacity="0" stroke="#000000"  d="M164.4,27.4c-2,0-3.5,1.4-3.7,3.1v27.9c0,2.3,1.9,3.9,3.7,3.9c2,0,3.9-1.9,3.9-3.9V31.1C168.3,29.3,166.4,27.4,164.4,27.4z"/><path stroke-width="4" fill-opacity="0" stroke="#000000"  d="M176.1,27.4c-2,0-3.5,1.4-3.7,3.1v27.9c0,2.3,1.9,3.9,3.7,3.9c1.9,0,3.9-1.9,3.9-3.9V31.1C179.8,29.3,178.1,27.4,176.1,27.4z"/><path stroke-width="4" fill-opacity="0" stroke="#000000"  d="M187.6,27.4c-2,0-3.5,1.4-3.7,3.1v27.9c0,2.3,1.9,3.9,3.7,3.9c1.9,0,3.9-1.9,3.9-3.9V31.1C191.5,29.3,189.8,27.4,187.6,27.4z"/><path stroke-width="4" fill-opacity="0" stroke="#000000"  d="M199.3,27.4c-2,0-3.5,1.4-3.7,3.1v27.9c0,2.3,1.9,3.9,3.7,3.9c2,0,3.9-1.9,3.9-3.9V31.1C203.2,29.3,201.3,27.4,199.3,27.4z"/><path stroke-width="4" fill-opacity="0" stroke="#000000"  d="M210.7,27.4c-2,0-3.5,1.4-3.7,3.1v27.9c0,2.3,1.9,3.9,3.7,3.9c2,0,3.9-1.9,3.9-3.9V31.1C214.6,29.3,213,27.4,210.7,27.4z"/><path stroke-width="4" fill-opacity="0" stroke="#000000"  d="M222.4,27.4c-2,0-3.5,1.4-3.7,3.1v27.9c0,2.3,1.9,3.9,3.7,3.9s3.9-1.9,3.9-3.9V31.1C226.3,29.3,224.7,27.4,222.4,27.4z"/></g></g></g><g></g><g></g><g></g><g></g><g></g><g></g><g></g><g></g><g></g><g></g><g></g><g></g><g></g><g></g><g></g></g></g>
</svg>