<svg xmlns="http://www.w3.org/2000/svg" viewBox="0 0 41.4 38.35"><title>Asset 11</title><g id="Layer_2" data-name="Layer 2"><g id="Layer_1-2" data-name="Layer 1"><path d="M6.05,10.46a2.66,2.66,0,0,0,.43.39.6.6,0,0,0,.75,0,5.13,5.13,0,0,0,.5-.6,3.29,3.29,0,0,0-.36-.62c-.65-.68-1.32-1.35-2-2a.73.73,0,0,0-1.11,0,.74.74,0,0,0,.06,1.11C4.89,9.31,5.47,9.88,6.05,10.46Z" style="fill:rgb(210, 170, 113)"/><path d="M4.47,19a.7.7,0,0,0-.66-.78c-1,0-2.08,0-3.12,0A.73.73,0,0,0,0,19a.75.75,0,0,0,.76.71c.48,0,1,0,1.46,0s1,0,1.52,0A.71.71,0,0,0,4.47,19Z" style="fill:rgb(210, 170, 113)"/><path d="M16.37,7.08a.75.75,0,0,0,.72-.66V3.23a.72.72,0,0,0-.72-.63.74.74,0,0,0-.76.8c0,1,0,1.91,0,2.86A.77.77,0,0,0,16.37,7.08Z" style="fill:rgb(210, 170, 113)"/><path d="M6.58,27.42c-.19.16-.35.34-.52.51L4.31,29.69a.68.68,0,0,0-.19.85,3.08,3.08,0,0,0,.62.56,2.74,2.74,0,0,0,.61-.35c.76-.74,1.52-1.5,2.27-2.26a.75.75,0,1,0-1-1.07Z" style="fill:rgb(210, 170, 113)"/><path d="M17.09,31.56a.73.73,0,0,0-.72-.67c-.48,0-.77.34-.77.92V36c0,.56.29.9.75.9a.72.72,0,0,0,.74-.67Z" style="fill:rgb(210, 170, 113)"/><path d="M17.09,29.38V27.86c-.25,0-.5,0-.76,0a8.92,8.92,0,0,1,0-17.84c.25,0,.48,0,.72,0V8.59c-.23,0-.45,0-.68,0a10.43,10.43,0,1,0-.06,20.86C16.6,29.42,16.84,29.4,17.09,29.38Z" style="fill:rgb(210, 170, 113)"/><path d="M39.28,38.35H19.16A1.37,1.37,0,0,1,17.79,37V1.52A1.38,1.38,0,0,1,19.16.15H39.28a1.38,1.38,0,0,1,1.37,1.37V37A1.37,1.37,0,0,1,39.28,38.35Zm-20-1.44h20V1.6h-20Z" style="fill:#000"/><rect x="17.12" width="24.28" height="2.91" rx="1.46" style="fill:#000"/><rect x="18.58" y="9.04" width="21.41" height="1.45" style="fill:#000"/><rect x="18.57" y="16.12" width="21.41" height="1.45" style="fill:#000"/><rect x="18.63" y="23.43" width="21.41" height="1.45" style="fill:#000"/><rect x="18.61" y="30.52" width="21.41" height="1.45" style="fill:#000"/></g></g></svg>