
<svg version="1.1" xmlns="http://www.w3.org/2000/svg" xmlns:xlink="http://www.w3.org/1999/xlink" x="0px" y="0px" viewBox="0 0 256 256" enable-background="new 0 0 256 256" xml:space="preserve">
<metadata> Svg Vector Icons : http://www.onlinewebfonts.com/icon </metadata>
<g><g><g><path fill="#FFC66E" d="M33.3,13.8c-3,1.3-3.6,2.5-3.7,7.7l-0.2,4.8l-8.2,0.2L13,26.6l-1.5,1.7C10.1,30,10,30.1,10,35.9c0,9.5,0.5,10,11.8,10h7.7v4.4c0,2.9,0.3,4.9,0.8,5.9c2.2,4.3,9.7,4.1,11.8-0.3c1.1-2.4,1.1-36.3,0.1-38.9C40.8,13.8,36.6,12.3,33.3,13.8z"/><path fill="#FFC66E" d="M66.6,13.3c-0.6,0.2-1.7,1-2.6,1.8c-1.4,1.4-1.5,1.8-1.6,6.4l-0.2,4.8h-6.6H49v9.7v9.7h6.7h6.7v4.4c0,5,0.7,7,3.1,8.2c2,1,5.4,1,7.2-0.1c2.9-1.7,3-2.5,3-21.9c0-19.2-0.2-20.4-2.8-22.1C71.6,13.4,68.5,12.9,66.6,13.3z"/><path fill="#FFC66E" d="M99,13.8c-3,1.3-3.6,2.5-3.7,7.8l-0.2,4.8h-6.6h-6.6v9.7v9.7h6.7h6.7v4.4c0,2.9,0.3,4.9,0.8,5.9c2.1,3.9,9,4.2,11.6,0.3c1.1-1.6,1.3-36.9,0.3-39.5C106.5,13.8,102.3,12.2,99,13.8z"/><path fill="#FFC66E" d="M151.1,13.9c-2.6,1.3-3.6,3.7-3.6,8.5v4h-16.4h-16.4v9.7v9.7h16.4h16.4v3.8c0,4.4,0.8,6.8,2.8,8.4c1.7,1.3,5.2,1.5,7.4,0.4c3-1.5,3.1-2,3.1-22.6V17.1l-1.6-1.8C157,13,153.9,12.5,151.1,13.9z"/><path fill="#FFC66E" d="M183.9,13.9c-2.6,1.3-3.6,3.7-3.6,8.5v4h-6.4h-6.4v9.7v9.7h6.4h6.4l0.2,4.9c0.2,4.9,0.2,5,2.1,6.7c1.5,1.4,2.3,1.7,4.2,1.7c1.3,0,3-0.4,3.8-0.8c3-1.5,3.1-2,3.1-22.6V17.1l-1.6-1.8C189.9,13,186.7,12.5,183.9,13.9z"/><path fill="#FFC66E" d="M216.8,13.9c-2.6,1.3-3.6,3.7-3.6,8.5v4h-6.4h-6.4v9.7v9.7h6.4h6.4l0.2,4.9c0.2,4.9,0.2,5,2.1,6.7c1.5,1.4,2.3,1.7,4.2,1.7c1.3,0,3-0.4,3.8-0.8c3-1.5,3.1-2,3.1-22.6V17.1l-1.6-1.8C222.7,13,219.5,12.5,216.8,13.9z"/><path fill="#FFC66E" d="M233.2,36.1v9.8h4.8c7.2-0.1,8.1-1.1,8.1-10c0-5.8-0.1-6-1.5-7.6c-1.5-1.6-1.6-1.7-6.4-1.8l-4.9-0.2V36.1z"/><path fill="#555" d="M10,138V210h49.3h49.3V138V65.9H59.3H10V138z"/><path fill="#555" d="M147.5,138V210h49.3H246V138V65.9h-49.3h-49.3V138z"/><path fill="#FFC66E" d="M10,233.1v9.7h49.3h49.3v-9.7v-9.7H59.3H10V233.1z"/><path fill="#FFC66E" d="M147.5,233.1v9.7h49.3H246v-9.7v-9.7h-49.3h-49.3V233.1z"/></g></g></g>
</svg>