
<svg version="1.0" xmlns="http://www.w3.org/2000/svg"
 width="128.000000pt" height="128.000000pt" viewBox="0 0 128.000000 128.000000"
 preserveAspectRatio="xMidYMid meet">
<metadata>
Created by potrace 1.16, written by Peter Selinger 2001-2019
</metadata>
<g transform="translate(0.000000,128.000000) scale(0.100000,-0.100000)"
fill="rgba(255,187,51, 1)" stroke="none">
<path d="M330 1257 c-135 -46 -225 -126 -288 -257 -33 -69 -36 -83 -40 -185
-5 -124 13 -199 70 -287 38 -61 127 -142 189 -174 153 -77 359 -66 496 26 l46
31 26 -25 25 -25 -24 -26 -24 -26 155 -155 155 -154 53 0 c45 0 57 4 82 29 25
25 29 37 29 82 l0 53 -154 155 -155 155 -26 -24 -26 -24 -26 27 c-25 24 -26
28 -11 44 9 10 27 41 41 68 139 270 7 598 -280 694 -88 29 -224 29 -313 -2z
m303 -86 c111 -43 192 -127 238 -251 30 -79 24 -211 -13 -293 -37 -79 -116
-160 -196 -199 -55 -27 -78 -33 -156 -36 -74 -3 -101 0 -146 17 -82 31 -143
73 -188 130 -184 232 -71 565 218 648 62 18 173 10 243 -16z m457 -936 c98
-98 113 -118 104 -133 -6 -9 -17 -18 -25 -20 -8 -1 -65 49 -128 112 -113 114
-115 115 -96 136 10 11 21 20 24 20 4 0 58 -52 121 -115z"/>
<path d="M297 833 c-4 -3 -7 -24 -7 -45 l0 -38 195 0 195 0 0 45 0 45 -188 0
c-104 0 -192 -3 -195 -7z"/>
</g>
</svg>
