
<svg version="1.0" xmlns="http://www.w3.org/2000/svg"
 width="200.000000pt" height="200.000000pt" viewBox="0 0 200.000000 200.000000"
 preserveAspectRatio="xMidYMid meet">

<g transform="translate(0.000000,200.000000) scale(0.100000,-0.100000)"
fill="#FFC66E" stroke="none">
<path d="M475 1885 c-50 -17 -117 -89 -133 -142 -8 -27 -12 -125 -12 -288 0
-206 -3 -251 -15 -265 -8 -9 -58 -157 -110 -328 l-95 -312 0 -197 c1 -207 3
-218 47 -241 16 -9 239 -12 848 -12 l827 0 29 29 29 29 0 193 0 193 -96 315
c-53 174 -102 323 -109 331 -11 12 -14 75 -17 280 -3 251 -4 267 -25 307 -27
51 -82 96 -132 112 -61 18 -983 15 -1036 -4z m233 -44 c-31 -40 -66 -40 -103
-1 l-29 30 78 0 78 0 -24 -29z m104 -8 c22 -24 35 -46 34 -61 -3 -26 -53 -82
-75 -82 -22 0 -81 61 -81 84 0 18 65 96 80 96 3 0 22 -17 42 -37z m123 7 c-43
-45 -87 -39 -119 18 -5 9 11 12 70 12 l78 0 -29 -30z m105 -5 c42 -43 43 -75
5 -115 -36 -37 -61 -38 -97 -3 -39 37 -36 69 9 115 20 21 40 38 43 38 3 0 21
-16 40 -35z m140 28 c0 -17 -46 -53 -69 -53 -24 0 -71 34 -71 52 0 4 32 8 70
8 39 0 70 -3 70 -7z m87 -25 c43 -41 44 -83 5 -121 -15 -15 -37 -27 -47 -27
-28 0 -75 50 -75 79 0 22 62 101 79 101 3 0 20 -14 38 -32z m143 25 c0 -17
-46 -53 -69 -53 -24 0 -71 34 -71 52 0 4 32 8 70 8 39 0 70 -3 70 -7z m126
-21 c52 -28 51 -39 -7 -98 -31 -31 -62 -54 -74 -54 -27 0 -77 52 -81 84 -2 18
8 35 36 60 34 30 42 33 72 27 18 -4 43 -13 54 -19z m-949 -14 c21 -20 33 -42
33 -58 0 -31 -47 -80 -76 -80 -26 0 -129 104 -119 120 13 22 70 50 100 50 19
0 40 -11 62 -32z m83 -52 c0 -8 -5 -18 -11 -22 -14 -8 -33 11 -25 25 10 16 36
13 36 -3z m230 0 c0 -20 -19 -31 -32 -18 -6 6 -7 15 -4 21 10 16 36 13 36 -3z
m228 -3 c-2 -10 -10 -18 -18 -18 -8 0 -16 8 -18 18 -2 12 3 17 18 17 15 0 20
-5 18 -17z m230 0 c-2 -10 -10 -18 -18 -18 -8 0 -16 8 -18 18 -2 12 3 17 18
17 15 0 20 -5 18 -17z m-903 -43 c61 -60 63 -89 9 -141 l-34 -33 -30 29 c-26
25 -30 36 -30 80 0 51 16 115 28 115 4 0 29 -23 57 -50z m1164 19 c6 -18 11
-55 11 -84 0 -44 -4 -55 -30 -80 l-30 -29 -40 39 c-54 52 -52 77 7 137 26 26
53 48 59 48 7 0 17 -14 23 -31z m-916 -38 c38 -35 35 -69 -11 -114 l-38 -37
-36 37 c-47 49 -50 74 -14 112 34 35 62 36 99 2z m231 0 c37 -35 34 -69 -12
-114 l-38 -37 -39 40 c-49 50 -51 67 -15 105 36 37 69 39 104 6z m230 0 c38
-36 34 -69 -14 -116 l-40 -39 -40 39 c-48 47 -50 69 -10 110 36 37 69 39 104
6z m229 1 c36 -34 31 -74 -15 -119 l-38 -37 -40 39 c-47 46 -51 77 -14 116 31
33 73 33 107 1z m-835 -55 c2 -12 -3 -17 -17 -17 -12 0 -21 6 -21 13 0 31 32
34 38 4z m227 2 c0 -7 -8 -15 -17 -17 -18 -3 -25 18 -11 32 10 10 28 1 28 -15z
m228 6 c7 -18 -9 -29 -30 -21 -12 5 -13 9 -3 21 16 19 26 19 33 0z m225 -8 c2
-10 -3 -17 -12 -17 -18 0 -29 16 -21 31 9 14 29 6 33 -14z m230 0 c2 -12 -3
-17 -17 -17 -12 0 -21 6 -21 13 0 31 32 34 38 4z m-868 -72 l34 -35 -94 0 -94
0 34 35 c22 22 43 35 60 35 17 0 38 -13 60 -35z m230 0 l34 -35 -94 0 -94 0
34 35 c22 22 43 35 60 35 17 0 38 -13 60 -35z m230 0 c26 -27 30 -35 17 -35
-10 0 -29 -11 -42 -25 -24 -23 -25 -29 -25 -160 0 -83 -4 -135 -10 -135 -6 0
-10 48 -10 125 0 137 -8 168 -51 187 l-28 13 31 32 c42 44 74 43 118 -2z m230
0 l34 -35 -94 0 -94 0 34 35 c22 22 43 35 60 35 17 0 38 -13 60 -35z m230 0
l34 -35 -99 0 -99 0 34 35 c24 25 43 35 65 35 22 0 41 -10 65 -35z m-1110 -40
c0 -7 -9 -20 -20 -30 -20 -18 -20 -17 -20 30 0 47 0 48 20 30 11 -10 20 -23
20 -30z m1220 -2 l0 -46 -25 23 -25 24 22 23 c12 13 23 23 25 23 2 0 3 -21 3
-47z m-694 -37 c17 -13 19 -27 19 -143 l0 -128 -267 -3 -268 -2 0 125 c0 177
-19 165 268 165 181 0 232 -3 248 -14z m624 -6 c18 -18 20 -33 20 -145 l0
-125 -270 0 -270 0 0 125 c0 177 -19 165 270 165 217 0 231 -1 250 -20z
m-1170 -140 c0 -80 -4 -130 -10 -130 -6 0 -10 48 -10 123 0 109 3 137 17 137
2 0 3 -58 3 -130z m1240 -6 c0 -76 -4 -124 -10 -124 -6 0 -10 50 -10 131 0 84
4 128 10 124 6 -4 10 -58 10 -131z m14 -176 c16 -15 34 -53 51 -111 15 -49 25
-90 23 -92 -1 -2 -302 17 -668 42 l-665 45 -48 -21 c-30 -12 -47 -15 -44 -8 2
7 12 38 21 69 10 36 26 64 42 77 26 21 35 21 645 21 l618 0 25 -22z m-549
-199 c341 -22 625 -42 631 -44 8 -2 104 -296 104 -319 0 -3 -373 -6 -830 -6
-456 0 -830 4 -830 8 0 5 21 78 46 163 39 131 51 159 81 191 38 39 86 57 143
51 19 -2 314 -21 655 -44z m749 -421 c22 -31 23 -374 2 -404 -14 -19 -34 -19
-846 -19 -812 0 -832 0 -846 19 -21 30 -20 373 2 404 l15 22 829 0 829 0 15
-22z"/>
<path d="M470 1462 c0 -5 7 -13 16 -16 25 -10 398 -7 414 4 22 14 5 23 -19 10
-25 -13 -366 -10 -393 4 -11 5 -18 4 -18 -2z"/>
<path d="M1090 1462 c0 -5 7 -13 16 -16 25 -10 398 -7 414 4 22 14 5 23 -19
10 -25 -13 -366 -10 -393 4 -11 5 -18 4 -18 -2z"/>
</g>
</svg>
