
<svg version="1.1" id="Layer_1" xmlns="http://www.w3.org/2000/svg" xmlns:xlink="http://www.w3.org/1999/xlink" x="0px" y="0px"
	 viewBox="0 0 512 512" style="enable-background:new 0 0 512 512;" xml:space="preserve">
<style type="text/css">
	.st0{fill-rule:evenodd;clip-rule:evenodd;fill:#fff;}
</style>
<title>01</title>
<g>
	<path class="st0" d="M256,6C118.2,6,6,118.2,6,256s112.2,250,250,250s250-112.1,250-250S393.9,6,256,6z M256,479.1
		C133,479.1,32.9,379,32.9,256S133,32.9,256,32.9v0C379,32.9,479.1,133,479.1,256S379,479.1,256,479.1z"/>
	<path class="st0" d="M321.6,106.2C321.6,106.2,321.6,106.2,321.6,106.2h-50.8c-29.8,0-54,24.2-54,54v42.8h-26.9
		c-2.1,0-3.8,1.7-3.8,3.8c0,0,0,0,0,0V251c0,2.1,1.7,3.8,3.8,3.8h26.9v2.4v144.9c0,2.1,1.7,3.8,3.8,3.8h53.8c2.1,0,3.8-1.7,3.8-3.8
		V254.8h39c2,0,3.6-1.5,3.8-3.5l3.8-44.4c0.2-2.1-1.4-3.9-3.4-4.1c-0.1,0-0.2,0-0.3,0h-42.8v-31.5c0-7.4,6-13.4,13.4-13.4h30.1
		c2.1,0,3.8-1.7,3.8-3.8v-44.4C325.3,107.8,323.7,106.2,321.6,106.2z"/>
</g>
</svg>
