
<svg fill="white" height="800px" width="800px" version="1.1" id="Capa_1" xmlns="http://www.w3.org/2000/svg" xmlns:xlink="http://www.w3.org/1999/xlink" 
	 viewBox="0 0 297 297" xml:space="preserve">
<path d="M282.327,24.019h4.871c5.413,0,9.802-4.389,9.802-9.802s-4.389-9.802-9.802-9.802H9.802C4.389,4.415,0,8.804,0,14.217
	s4.389,9.802,9.802,9.802h4.872L1.613,273.065c-0.141,2.685,0.828,5.31,2.678,7.261c1.851,1.95,4.421,3.055,7.11,3.055
	c4.922,0,6.922,1.204,10.234,3.198c4.211,2.536,9.978,6.008,20.346,6.008s16.134-3.472,20.345-6.008
	c3.312-1.994,5.312-3.198,10.234-3.198c4.92,0,6.92,1.204,10.232,3.198c4.21,2.536,9.976,6.008,20.344,6.008
	s16.134-3.472,20.344-6.008c3.312-1.994,5.312-3.198,10.232-3.198c3.605,0,6.919-1.979,8.628-5.152
	c1.711-3.173,1.541-7.029-0.441-10.04L89.541,188.66c17.154-5.297,35.342-20.529,46-57.835c6.579-23.027,7.728-45.724,7.929-53.263
	c1.831,0.051,3.642,0.078,5.43,0.078c1.527,0,3.072-0.022,4.631-0.058c0.202,7.558,1.355,30.236,7.928,53.244
	c10.659,37.306,28.846,52.537,46.001,57.835l-52.358,79.527c-1.982,3.011-2.152,6.867-0.441,10.04
	c1.71,3.173,5.024,5.152,8.628,5.152c4.921,0,6.921,1.204,10.233,3.198c4.21,2.536,9.977,6.008,20.344,6.008
	c10.368,0,16.134-3.473,20.345-6.008c3.311-1.995,5.31-3.198,10.23-3.198c4.922,0,6.922,1.204,10.234,3.198
	c4.211,2.536,9.978,6.008,20.346,6.008s16.135-3.472,20.346-6.008c3.312-1.994,5.312-3.198,10.234-3.198
	c2.689,0,5.26-1.105,7.11-3.055c1.85-1.951,2.819-4.576,2.678-7.261L282.327,24.019z M117.831,267.282
	c-1.699,0.837-3.156,1.714-4.464,2.501c-3.312,1.995-5.312,3.198-10.232,3.198s-6.92-1.203-10.232-3.198
	c-4.21-2.536-9.976-6.008-20.344-6.008s-16.135,3.472-20.346,6.008c-3.312,1.994-5.312,3.198-10.233,3.198
	c-4.922,0-6.922-1.204-10.234-3.198c-2.56-1.541-5.694-3.428-10.086-4.671l3.882-74.015h42.131L117.831,267.282z M116.691,125.44
	c-8.731,30.557-23.445,46.052-43.736,46.052H26.571l6.708-127.911c20.156,17.237,56.604,28.656,90.613,32.562
	C123.783,81.395,122.955,103.52,116.691,125.44z M41.294,24.019h215.213C242.728,40.582,196.258,58.037,148.9,58.037
	S55.072,40.582,41.294,24.019z M173.112,76.236c33.811-3.771,70.18-15.002,90.644-32.012l6.674,127.269h-46.385
	C176.97,171.493,173.379,87.627,173.112,76.236z M265.254,269.783c-3.312,1.994-5.312,3.198-10.234,3.198s-6.922-1.204-10.234-3.198
	c-4.211-2.536-9.978-6.008-20.346-6.008c-10.367,0-16.133,3.472-20.343,6.008c-3.312,1.995-5.311,3.198-10.232,3.198
	c-4.92,0-6.92-1.203-10.232-3.198c-1.308-0.787-2.765-1.666-4.464-2.501l50.158-76.186h42.131l3.882,74.015
	C270.947,266.355,267.813,268.242,265.254,269.783z"/>
</svg>