
<svg version="1.0" xmlns="http://www.w3.org/2000/svg"
 width="512.000000pt" height="512.000000pt" viewBox="0 0 512.000000 512.000000"
 preserveAspectRatio="xMidYMid meet">
<metadata>
Created by potrace 1.16, written by Peter Selinger 2001-2019
</metadata>
<g transform="translate(0.000000,512.000000) scale(0.100000,-0.100000)"
fill="#ffffff" stroke="none">
<path d="M303 5100 c-134 -48 -237 -152 -284 -288 -18 -54 -19 -115 -19 -2252
0 -2137 1 -2198 19 -2252 47 -138 151 -242 288 -289 55 -19 103 -19 2253 -19
2150 0 2198 0 2253 19 139 48 246 157 291 297 15 46 16 123 14 760 l-3 709
-26 55 c-46 97 -134 189 -227 236 -1 0 9 22 24 48 65 117 72 293 15 406 -7 14
-151 268 -319 564 -243 427 -319 552 -364 601 -97 105 -208 149 -358 143 l-88
-3 -4 105 c-3 93 -7 113 -36 173 -62 132 -93 155 -692 499 -294 169 -556 316
-581 327 -106 47 -252 46 -361 -2 l-52 -23 -31 40 c-41 54 -117 111 -185 139
l-55 22 -710 2 c-671 2 -713 1 -762 -17z m1425 -305 c18 -11 43 -36 55 -55 22
-35 22 -40 25 -577 l3 -543 -756 0 -756 0 3 543 c3 538 3 542 25 577 24 39 53
60 98 71 17 4 309 7 650 6 601 -2 621 -3 653 -22z m591 -136 c42 -15 1081
-615 1104 -638 28 -27 45 -89 37 -126 -4 -18 -308 -556 -676 -1196 l-669
-1162 -3 1488 -2 1488 24 41 c39 66 58 86 101 101 49 17 45 17 84 4z m1629
-1143 c15 -8 36 -25 48 -38 12 -12 158 -261 325 -553 299 -523 303 -531 304
-587 0 -53 -3 -60 -35 -92 -19 -19 -584 -352 -1255 -740 l-1220 -706 -3 50
c-3 50 2 58 694 1263 383 666 704 1220 713 1229 9 9 84 55 166 102 161 92 203
103 263 72z m-2138 -801 l0 -605 -755 0 -755 0 0 605 0 605 755 0 755 0 0
-605z m-2 -1602 c-3 -678 -4 -699 -23 -731 -11 -18 -36 -43 -55 -55 l-35 -22
-640 0 -640 0 -35 22 c-19 12 -44 37 -55 55 -19 32 -20 53 -23 731 l-3 697
756 0 756 0 -3 -697z m2933 670 c18 -12 43 -37 54 -55 19 -32 20 -51 20 -673
0 -622 -1 -641 -20 -673 -11 -18 -36 -43 -55 -55 l-35 -22 -1308 -3 -1308 -2
7 22 c4 12 9 44 13 70 l6 48 1180 685 1180 685 116 -3 c97 -3 120 -6 150 -24z"/>
<path d="M913 1490 c-188 -67 -303 -231 -303 -430 0 -259 191 -450 450 -450
259 0 450 191 450 450 0 201 -117 365 -307 431 -75 25 -216 25 -290 -1z m221
-309 c43 -29 66 -70 66 -121 0 -80 -60 -140 -140 -140 -80 0 -140 60 -140 140
0 80 60 140 140 140 27 0 56 -8 74 -19z"/>
</g>
</svg>
