
<svg version="1.0" xmlns="http://www.w3.org/2000/svg"
 width="512.000000pt" height="512.000000pt" viewBox="0 0 512.000000 512.000000"
 preserveAspectRatio="xMidYMid meet">

<g transform="translate(0.000000,512.000000) scale(0.100000,-0.100000)"
fill="#FEC66E" stroke="none">
<path d="M0 4855 l0 -225 2560 0 2560 0 0 225 0 225 -2560 0 -2560 0 0 -225z"/>
<path d="M266 4415 l-179 -135 1857 0 1857 0 -3 133 -3 132 -1675 2 -1675 3
-179 -135z"/>
<path d="M3887 4543 c-4 -3 -7 -829 -7 -1835 l0 -1828 45 0 45 0 0 1835 0
1835 -38 0 c-21 0 -42 -3 -45 -7z"/>
<path d="M4060 4415 l0 -135 442 0 c243 0 439 2 436 5 -3 3 -83 64 -178 135
l-173 130 -264 0 -263 0 0 -135z"/>
<path d="M275 4069 c-88 -66 -164 -124 -170 -130 -5 -5 681 -9 1843 -9 l1852
0 0 130 0 130 -1682 0 -1683 -1 -160 -120z"/>
<path d="M4060 4060 l0 -130 435 0 c239 0 435 2 435 4 0 2 -76 61 -169 130
l-168 126 -267 0 -266 0 0 -130z"/>
<path d="M271 3714 c-91 -68 -167 -127 -170 -129 -2 -3 829 -5 1847 -5 l1852
0 0 130 0 130 -1682 -1 -1683 0 -164 -125z"/>
<path d="M4060 3710 l0 -130 437 0 c244 0 433 4 428 9 -6 4 -83 63 -172 130
l-162 121 -266 0 -265 0 0 -130z"/>
<path d="M266 3355 l-179 -135 1854 2 1854 3 0 130 0 130 -1675 2 -1675 3
-179 -135z"/>
<path d="M4060 3355 l0 -135 442 0 c243 0 439 2 436 5 -3 3 -83 64 -178 135
l-173 130 -264 0 -263 0 0 -135z"/>
<path d="M275 3009 c-88 -66 -164 -124 -170 -130 -5 -5 681 -9 1843 -9 l1852
0 0 130 0 130 -1682 0 -1683 -1 -160 -120z"/>
<path d="M4060 3000 l0 -130 442 0 441 0 -173 130 -173 130 -269 0 -268 0 0
-130z"/>
<path d="M271 2654 c-91 -68 -167 -127 -170 -129 -2 -3 829 -5 1847 -5 l1852
0 0 130 0 130 -1682 -1 -1683 0 -164 -125z"/>
<path d="M4060 2650 l0 -130 437 0 c244 0 433 4 428 9 -6 4 -83 63 -172 130
l-162 121 -266 0 -265 0 0 -130z"/>
<path d="M272 2303 c-94 -71 -171 -131 -172 -136 0 -4 831 -6 1848 -5 l1847 3
0 130 0 130 -1676 3 -1675 2 -172 -127z"/>
<path d="M4060 2295 l0 -135 442 0 c243 0 439 2 436 5 -3 3 -83 64 -178 135
l-173 130 -264 0 -263 0 0 -135z"/>
<path d="M275 1949 c-88 -66 -164 -124 -170 -130 -5 -5 681 -9 1843 -9 l1852
0 0 130 0 130 -1682 0 -1683 -1 -160 -120z"/>
<path d="M4060 1940 l0 -130 442 0 441 0 -173 130 -173 130 -269 0 -268 0 0
-130z"/>
<path d="M271 1594 c-91 -68 -167 -127 -170 -129 -2 -3 829 -5 1847 -5 l1852
0 0 130 0 130 -1682 -1 -1683 0 -164 -125z"/>
<path d="M4060 1590 l0 -130 435 0 c239 0 435 2 435 4 0 2 -76 61 -169 130
l-168 126 -267 0 -266 0 0 -130z"/>
<path d="M272 1243 c-94 -71 -171 -131 -172 -136 0 -4 831 -6 1848 -5 l1847 3
0 130 0 130 -1676 3 -1675 2 -172 -127z"/>
<path d="M4060 1235 l0 -135 442 0 c243 0 439 2 436 5 -3 3 -83 64 -178 135
l-173 130 -264 0 -263 0 0 -135z"/>
<path d="M266 885 l-179 -135 1821 0 1821 0 12 22 c6 13 22 35 36 49 22 24 24
33 21 110 l-3 84 -1675 2 -1675 3 -179 -135z"/>
<path d="M4067 1013 c-4 -3 -7 -45 -7 -92 1 -85 1 -86 39 -128 l39 -43 403 0
402 0 -179 135 -179 134 -256 1 c-141 0 -259 -3 -262 -7z"/>
<path d="M3840 752 c-36 -36 -40 -45 -40 -90 0 -43 5 -56 33 -86 18 -19 45
-38 60 -41 99 -25 190 71 158 168 -18 54 -53 80 -116 85 -53 4 -56 3 -95 -36z"/>
<path d="M267 532 l-167 -127 1211 -3 c666 -1 1753 -1 2417 0 l1206 3 -171
127 -170 128 -220 0 -219 0 -14 -52 c-27 -105 -142 -181 -249 -163 -63 10
-126 58 -155 117 -14 29 -26 62 -26 75 l0 23 -1637 -1 -1638 0 -168 -127z"/>
<path d="M272 183 c-94 -71 -171 -131 -172 -135 0 -5 1090 -8 2422 -8 2048 0
2420 2 2408 14 -8 7 -88 68 -177 135 l-162 121 -2074 0 -2073 0 -172 -127z"/>
</g>
</svg>
