
<svg version="1.1" id="Layer_1" xmlns="http://www.w3.org/2000/svg" xmlns:xlink="http://www.w3.org/1999/xlink" x="0px" y="0px"
	 viewBox="0 0 512 512" style="enable-background:new 0 0 512 512;" xml:space="preserve">
<style type="text/css">
	.st0{fill:#FEC66E;}
</style>
<g id="XMLID_1_">
	<polygon id="XMLID_3_" class="st0" points="8.4,83.9 379.4,83.9 379.4,57.1 43.6,57.1 	"/>
	<polygon id="XMLID_4_" class="st0" points="406.2,57.1 406.2,83.9 494.4,83.9 459.1,57.1 	"/>
	<polygon id="XMLID_5_" class="st0" points="379.4,119.2 379.4,92.3 43.6,92.3 8.4,119.2 	"/>
	<polygon id="XMLID_6_" class="st0" points="406.2,92.3 406.2,119.2 494.4,119.2 459.1,92.3 	"/>
	<polygon id="XMLID_7_" class="st0" points="379.4,154.4 379.4,127.6 43.6,127.6 8.4,154.4 	"/>
	<polygon id="XMLID_8_" class="st0" points="406.2,127.6 406.2,154.4 494.4,154.4 459.1,127.6 	"/>
	<polygon id="XMLID_9_" class="st0" points="406.2,162.8 406.2,189.7 494.4,189.7 459.1,162.8 	"/>
	<polygon id="XMLID_10_" class="st0" points="379.4,189.7 379.4,162.8 43.6,162.8 8.4,189.7 	"/>
	<polygon id="XMLID_11_" class="st0" points="379.4,224.9 379.4,198.9 43.6,198.9 8.4,224.9 	"/>
	<polygon id="XMLID_12_" class="st0" points="406.2,198.9 406.2,224.9 494.4,224.9 459.1,198.9 	"/>
	<polygon id="XMLID_13_" class="st0" points="379.4,260.2 379.4,234.2 43.6,234.2 8.4,260.2 	"/>
	<polygon id="XMLID_14_" class="st0" points="406.2,234.2 406.2,260.2 494.4,260.2 459.1,234.2 	"/>
	<polygon id="XMLID_15_" class="st0" points="379.4,295.4 379.4,269.4 43.6,269.4 8.4,295.4 	"/>
	<polygon id="XMLID_16_" class="st0" points="406.2,269.4 406.2,295.4 494.4,295.4 459.1,269.4 	"/>
	<polygon id="XMLID_17_" class="st0" points="379.4,330.7 379.4,304.7 43.6,304.7 8.4,330.7 	"/>
	<polygon id="XMLID_18_" class="st0" points="406.2,304.7 406.2,330.7 494.4,330.7 459.1,304.7 	"/>
	<polygon id="XMLID_19_" class="st0" points="406.2,339.9 406.2,366.8 494.4,366.8 459.1,339.9 	"/>
	<polygon id="XMLID_20_" class="st0" points="379.4,366.8 379.4,339.9 43.6,339.9 8.4,366.8 	"/>
	<polygon id="XMLID_21_" class="st0" points="406.2,375.2 406.2,402 494.4,402 459.1,375.2 	"/>
	<polygon id="XMLID_22_" class="st0" points="379.4,402 379.4,375.2 43.6,375.2 8.4,402 	"/>
	<path id="XMLID_23_" class="st0" d="M372.7,437.3c1.7-3.4,4.2-6.7,6.7-8.4v-17.6H43.6L8.4,438.1h364.3V437.3z"/>
	<path id="XMLID_24_" class="st0" d="M406.2,410.4v17.6c3.4,2.5,5,5,6.7,8.4h81.4l-35.3-26.9h-52.9V410.4z"/>
	<path id="XMLID_25_" class="st0" d="M414.6,445.7c0,12.6-10.1,21.8-21.8,21.8S371,457.4,371,445.7H43.6L8.4,472.6h486l-35.3-26.9
		H414.6z"/>
	<polygon id="XMLID_26_" class="st0" points="43.6,480.9 8.4,507.8 494.4,507.8 459.1,480.9 	"/>
	<path id="XMLID_27_" class="st0" d="M397,424.7v-13.4V402v-26.9V366v-26v-9.2v-26.9v-9.2v-26.9v-9.2v-26.9v-9.2v-26.9v-9.2v-26.9
		v-9.2v-26.9v-9.2V87.3v-9.2V51.2h-9.2v26.9v9.2v26.9v9.2v26.9v9.2v26.9v9.2v26.9v9.2v26.9v9.2v26.9v9.2v26.9v9.2v26.9v9.2v26.9v9.2
		v13.4c1.7,0,2.5-0.8,4.2-0.8C393.7,424.7,396.2,423.9,397,424.7z"/>
	<polygon id="XMLID_28_" class="st0" points="0,48.7 379.4,48.7 388.6,48.7 397,48.7 406.2,48.7 512,48.7 512,4.2 0,4.2 	"/>
	<path id="XMLID_29_" class="st0" d="M382.7,437.3c-2.5,2.5-3.4,5-3.4,9.2c0,7.6,5.9,13.4,13.4,13.4c7.6,0,13.4-5.9,13.4-13.4
		c0-3.4-1.7-6.7-3.4-9.2c-1.7-1.7-3.4-2.5-5-3.4c-1.7-0.8-2.5-0.8-4.2-0.8c-1.7,0-3.4,0-4.2,0.8
		C386.1,433.9,384.4,435.6,382.7,437.3z"/>
</g>
</svg>
