
<svg version="1.0" xmlns="http://www.w3.org/2000/svg"
 width="512.000000pt" height="512.000000pt" viewBox="0 0 512.000000 512.000000"
 preserveAspectRatio="xMidYMid meet">
<metadata>
Created by potrace 1.16, written by Peter Selinger 2001-2019
</metadata>
<g transform="translate(0.000000,512.000000) scale(0.100000,-0.100000)"
fill="#ffffff" stroke="none">
<path d="M1406 5100 c-369 -99 -598 -472 -520 -848 31 -149 94 -265 205 -374
143 -141 368 -207 819 -238 188 -13 1112 -13 1300 0 458 32 678 97 825 244
219 219 276 544 146 821 -95 202 -272 348 -482 399 -86 21 -262 21 -348 0
-102 -25 -222 -87 -289 -149 -139 -128 -310 -443 -458 -842 -20 -57 -41 -103
-45 -103 -4 0 -13 17 -19 38 -30 91 -139 350 -206 489 -91 186 -193 341 -274
417 -69 63 -188 125 -291 150 -91 22 -273 20 -363 -4z m379 -181 c83 -30 155
-78 197 -130 86 -105 183 -282 280 -509 56 -130 178 -454 178 -471 0 -9 -70
-11 -277 -6 -449 10 -732 53 -869 132 -103 60 -216 224 -243 353 -56 272 111
554 381 641 100 33 250 29 353 -10z m1895 11 c229 -67 399 -293 400 -531 0
-71 -32 -196 -67 -262 -15 -29 -61 -86 -103 -128 -60 -60 -88 -81 -142 -102
-155 -61 -419 -95 -810 -104 -208 -5 -278 -3 -278 6 0 17 123 343 176 467 107
252 242 485 319 553 39 34 127 81 190 101 94 31 210 30 315 0z"/>
<path d="M503 3490 c-12 -5 -26 -18 -32 -29 -8 -13 -11 -211 -11 -609 l0 -589
23 -21 c21 -20 34 -22 140 -22 l117 0 0 -1075 c0 -1144 -1 -1121 45 -1139 28
-11 3534 -7 3555 4 10 5 23 24 29 41 8 23 11 346 11 1100 l0 1069 118 0 c111
0 120 1 140 23 l22 23 0 591 c0 567 -1 592 -19 614 l-19 24 -2049 2 c-1168 1
-2057 -2 -2070 -7z m1447 -630 l0 -470 -660 0 -660 0 0 470 0 470 660 0 660 0
0 -470z m1050 -1115 l0 -1585 -440 0 -440 0 0 1585 0 1585 440 0 440 0 0
-1585z m1500 1115 l0 -470 -665 0 -665 0 0 470 0 470 665 0 665 0 0 -470z
m-2550 -1670 l0 -1030 -520 0 -520 0 0 1030 0 1030 520 0 520 0 0 -1030z
m2260 0 l0 -1030 -520 0 -520 0 0 1030 0 1030 520 0 520 0 0 -1030z"/>
</g>
</svg>
