<?xml version="1.0" standalone="no"?>
<!DOCTYPE svg PUBLIC "-//W3C//DTD SVG 20010904//EN"
 "http://www.w3.org/TR/2001/REC-SVG-20010904/DTD/svg10.dtd">
<svg version="1.0" xmlns="http://www.w3.org/2000/svg"
 width="3416.000000pt" height="2443.000000pt" viewBox="0 0 3416.000000 2443.000000"
 preserveAspectRatio="xMidYMid meet">

<g transform="translate(0.000000,2443.000000) scale(0.100000,-0.100000)"
fill="#FFC66E" stroke="none">
<path d="M22845 23626 c-74 -45 -80 -65 -83 -283 l-4 -193 -67 0 c-85 0 -163
-23 -204 -59 -29 -27 -32 -34 -35 -105 l-4 -75 -32 -5 c-17 -3 -71 -8 -121
-11 -121 -8 -281 -31 -330 -47 -22 -7 -41 -20 -43 -30 -4 -21 64 -42 188 -58
47 -6 100 -13 118 -16 l32 -5 0 -973 0 -973 -72 -7 c-92 -9 -227 -35 -250 -47
-33 -18 -20 -38 35 -53 57 -17 239 -41 385 -52 89 -6 92 -7 98 -33 9 -36 31
-59 83 -86 l45 -22 -50 -7 c-1387 -195 -3151 -634 -5984 -1491 -650 -196 -886
-264 -1145 -329 -1301 -325 -2511 -438 -3645 -340 -1867 161 -3518 906 -4721
2130 -160 164 -341 365 -334 372 1 2 34 -12 73 -32 322 -162 876 -385 1292
-521 2101 -683 4711 -796 7730 -334 1994 305 4245 903 6298 1674 40 15 71 29
69 31 -2 3 -98 -30 -213 -72 -1118 -406 -2586 -833 -3844 -1118 -3995 -905
-7386 -923 -10020 -54 -596 197 -1201 461 -1673 732 l-117 68 0 46 c0 102 -58
154 -180 162 l-75 5 0 280 0 280 81 5 c89 6 123 21 154 73 19 30 20 52 20 327
0 277 -1 297 -20 328 -11 18 -34 41 -52 52 -32 19 -52 20 -501 20 -523 0 -516
1 -559 -69 -23 -35 -23 -42 -23 -331 0 -269 2 -298 18 -325 35 -56 64 -69 162
-75 l90 -5 0 -280 0 -280 -80 -5 c-134 -9 -175 -55 -175 -199 l0 -81 -32 0
c-88 0 -168 -46 -199 -114 -18 -39 -19 -92 -19 -1317 0 -702 -2 -1278 -5
-1281 -3 -2 -35 0 -72 5 -122 17 -475 13 -588 -7 -131 -23 -267 -67 -310 -100
-100 -76 -124 -240 -52 -347 20 -30 46 -51 102 -84 16 -10 16 -29 -14 -330
-105 -1082 -167 -2099 -191 -3165 -5 -245 -10 -482 -10 -526 l0 -81 -108 -5
c-88 -3 -117 -9 -163 -30 -76 -35 -129 -85 -165 -155 l-29 -58 0 -665 0 -665
33 -67 c35 -72 78 -114 152 -151 38 -18 67 -23 185 -27 l140 -5 17 -250 c98
-1423 311 -2550 639 -3380 75 -192 243 -530 334 -675 193 -306 430 -559 673
-715 128 -82 286 -151 460 -201 9 -3 12 -77 12 -329 l0 -325 -140 0 -140 0 0
140 0 140 -295 0 c-325 0 -356 -5 -375 -56 -7 -17 -10 -161 -8 -396 l3 -370
24 -19 c22 -18 43 -19 337 -19 l314 0 0 135 0 135 139 0 140 0 3 -239 3 -239
31 -39 c58 -72 79 -78 254 -78 151 0 156 1 202 27 34 21 53 41 72 80 l26 52 0
623 0 623 27 -6 c72 -18 375 -122 523 -181 635 -249 1062 -561 1243 -905 21
-40 35 -62 32 -48 -34 126 -242 377 -430 521 -292 223 -726 436 -1216 596
l-178 58 -1 482 0 482 495 3 494 3 23 23 c21 20 23 34 26 137 l4 115 131 0
132 0 18 -45 c26 -63 105 -131 175 -151 148 -43 302 25 363 160 15 34 19 67
19 187 0 144 0 147 -31 209 -52 104 -131 148 -265 149 -67 1 -88 -3 -132 -25
-57 -28 -116 -90 -134 -141 l-12 -33 -133 0 -133 0 0 94 c0 100 -10 141 -38
162 -13 11 -121 13 -509 14 l-493 0 0 214 0 214 127 42 c564 185 885 451 1103
913 156 332 252 774 310 1440 11 126 29 270 40 320 104 476 410 873 925 1198
1154 727 3399 1019 5910 768 355 -35 603 -68 1250 -168 344 -53 655 -96 1325
-181 891 -113 1210 -162 1544 -236 1289 -286 1787 -863 1993 -2314 27 -186 28
-213 28 -570 -1 -326 -4 -399 -23 -560 -77 -632 -213 -1206 -467 -1965 -251
-753 -547 -1465 -983 -2365 l-138 -285 -8265 -5 -8264 -5 -58 -22 c-169 -64
-301 -214 -336 -381 -6 -29 -11 -136 -11 -237 l0 -184 -388 -3 c-366 -4 -391
-5 -452 -26 -129 -43 -235 -132 -298 -250 -63 -118 -62 -101 -62 -929 l0 -753
15630 0 15630 0 0 753 c0 826 1 811 -60 926 -64 119 -160 201 -294 250 l-71
26 -387 3 -388 3 0 184 c0 205 -8 260 -53 355 -38 83 -148 195 -228 234 -120
58 -65 56 -1306 56 l-1141 0 -6 48 c-17 131 -132 1328 -190 1977 -266 2953
-395 5358 -357 6655 10 349 22 566 37 718 l6 62 47 0 c104 -1 427 -61 483 -91
15 -8 17 -43 20 -341 l3 -333 32 -88 c43 -122 86 -190 178 -282 58 -58 101
-91 155 -119 41 -21 413 -172 825 -335 l750 -297 5 -715 5 -714 33 -68 c24
-49 48 -79 83 -107 88 -69 94 -70 625 -70 451 0 476 1 528 20 72 27 139 88
173 158 l28 57 3 2033 2 2032 45 0 c145 0 291 79 359 193 58 100 57 87 54 893
l-3 739 -27 58 c-72 153 -199 237 -359 237 l-69 0 -2 2318 -3 2317 -26 55
c-37 80 -72 115 -147 152 l-67 33 -495 0 -495 0 -57 -28 c-68 -34 -139 -109
-164 -175 -17 -43 -19 -95 -22 -670 l-3 -623 -822 -408 c-754 -374 -827 -413
-885 -466 -79 -72 -146 -165 -184 -256 -55 -132 -58 -167 -58 -785 l0 -565
-45 -19 c-159 -68 -384 -113 -670 -134 l-70 -5 -31 47 c-16 26 -59 119 -94
207 -272 676 -661 1233 -1115 1598 -552 444 -1199 680 -2092 764 -195 18 -871
25 -1060 10 -100 -8 -103 -7 -103 13 0 27 1 27 160 40 312 26 436 64 338 104
-31 13 -107 27 -243 44 l-60 7 -3 972 -2 972 32 5 c18 3 72 10 119 16 121 15
189 36 189 59 0 12 -12 22 -39 30 -51 15 -214 38 -321 46 -47 3 -104 8 -127
11 l-43 5 0 75 c0 67 -3 78 -25 100 -39 39 -92 56 -195 63 l-95 6 -5 197 c-5
179 -7 199 -26 224 -39 52 -70 68 -142 72 -57 2 -73 -1 -107 -22z m8664 -2237
c42 -283 88 -776 111 -1164 51 -873 52 -1961 5 -2795 -33 -570 -118 -1400
-141 -1377 -7 7 -51 340 -73 557 -146 1402 -131 3348 35 4660 26 210 34 263
40 257 2 -2 12 -64 23 -138z m-25289 -1310 c25 -250 69 -976 95 -1529 50
-1097 68 -2009 68 -3455 0 -1616 -22 -2566 -89 -3850 -26 -502 -71 -1146 -83
-1185 -10 -33 -15 12 -41 370 -96 1343 -140 2807 -140 4665 0 1392 20 2348 70
3465 34 743 93 1631 107 1616 2 -2 8 -46 13 -97z m17856 -199 c928 -53 1676
-259 2274 -628 119 -74 138 -87 275 -197 281 -225 497 -490 652 -799 54 -108
143 -328 143 -354 0 -3 -30 45 -66 108 -404 698 -1072 1145 -2039 1365 -512
116 -966 160 -1665 160 -690 0 -1275 -46 -2100 -166 -666 -96 -1605 -284
-2250 -449 -63 -16 -116 -28 -118 -26 -12 12 487 218 804 331 1045 375 2204
606 3289 658 159 8 642 6 801 -3z m6274 -3376 c0 -2561 -3 -3205 -12 -3201
-557 219 -934 373 -949 388 -19 19 -19 87 -19 2767 0 2183 3 2751 13 2764 10
14 940 486 960 487 4 1 7 -1442 7 -3205z m-26192 1742 c71 -37 98 -105 67
-170 -10 -20 -21 -36 -25 -36 -4 0 -10 18 -14 41 -5 34 -12 42 -41 55 -61 25
-105 1 -122 -66 l-10 -35 -17 34 c-54 104 61 229 162 177z m696 -337 c3 -3 -1
-53 -9 -110 -148 -1059 -240 -2054 -301 -3259 -4 -74 -9 -130 -10 -125 -2 6
-60 613 -129 1350 -69 737 -141 1512 -161 1723 -20 211 -34 386 -31 388 5 6
154 30 222 37 60 6 412 3 419 -4z m19771 -257 c201 -43 414 -137 582 -255 113
-80 291 -257 372 -372 72 -102 168 -292 206 -408 49 -149 66 -252 72 -437 6
-205 -12 -344 -70 -521 -77 -235 -200 -432 -382 -615 -222 -222 -466 -356
-776 -426 -91 -20 -131 -23 -314 -23 -232 0 -326 14 -504 77 -455 160 -826
538 -969 988 -58 182 -67 246 -67 475 0 183 3 223 23 314 81 360 271 667 557
898 190 154 470 277 720 318 128 20 428 13 550 -13z m-20445 -847 c118 -1288
260 -2848 260 -2857 0 -4 -12 -3 -26 2 -47 18 -73 12 -94 -22 -19 -31 -20 -51
-20 -290 l0 -258 -74 0 -73 0 -7 77 c-7 86 -36 159 -85 215 -30 35 -139 98
-168 98 -45 0 24 1663 118 2850 26 330 77 892 86 950 9 57 2 126 83 -765z
m728 -2107 c-2 -621 -6 -807 -14 -788 -19 41 -40 53 -79 46 -40 -8 -86 -44
-126 -100 l-29 -39 0 49 c0 159 34 917 55 1249 44 677 145 1772 183 1980 8 46
13 -1211 10 -2397z m8392 37 c570 -35 938 -75 2185 -234 305 -39 753 -87 945
-101 85 -7 157 -13 159 -15 4 -5 -41 -12 -184 -30 -242 -30 -379 -37 -800 -42
-441 -5 -736 3 -1645 47 -808 39 -945 43 -1515 44 -722 1 -1086 -18 -1650 -85
-519 -61 -1139 -189 -1608 -330 -127 -39 -237 -69 -244 -67 -8 2 93 58 224
125 832 426 1873 670 3008 707 213 7 892 -5 1125 -19z m-9000 -2645 c3 -146 9
-273 14 -283 5 -10 17 -22 27 -28 61 -32 235 87 271 187 12 33 28 46 28 22 0
-26 58 -134 86 -160 37 -34 100 -61 125 -53 11 4 28 23 39 43 19 37 19 27 20
-1560 l0 -1598 25 -16 c21 -14 40 -15 108 -10 145 12 527 56 707 81 96 14 181
25 187 25 10 0 13 -200 13 -980 0 -979 0 -980 -20 -980 -26 0 -176 58 -260
100 -291 146 -574 421 -796 773 -80 126 -256 480 -320 642 -328 838 -533 1931
-629 3364 -22 329 -25 303 36 331 64 31 142 114 164 177 9 26 19 81 22 121 l6
73 71 -3 71 -3 5 -265z m21310 -3204 c107 -36 173 -77 250 -155 86 -86 132
-169 155 -278 18 -86 18 -130 0 -218 -45 -212 -211 -387 -420 -440 -89 -23
-2471 -23 -2560 0 -205 52 -377 230 -420 432 -20 93 -19 156 5 247 26 104 62
167 143 252 91 96 202 155 331 174 28 4 593 7 1256 6 1143 -1 1208 -2 1260
-20z m-12095 -4436 c1973 -28 3150 -70 3403 -121 748 -150 -6821 -238 -11073
-129 -964 25 -1600 58 -1755 91 -47 10 -52 13 -37 24 88 64 1778 121 4307 145
1045 10 4212 4 5155 -10z m13240 -1471 c1842 -24 3037 -77 3097 -137 51 -51
-716 -99 -2102 -132 -1816 -42 -5024 -38 -6755 10 -1053 29 -1696 71 -1721
111 -73 119 3846 196 7481 148z"/>
<path d="M22205 21665 c-25 -12 -26 -14 -5 -9 28 7 60 23 45 23 -5 0 -23 -6
-40 -14z"/>
</g>
</svg>
