
<svg version="1.0" xmlns="http://www.w3.org/2000/svg"
 width="512.000000pt" height="512.000000pt" viewBox="0 0 512.000000 512.000000"
 preserveAspectRatio="xMidYMid meet">
<metadata>
Created by potrace 1.16, written by Peter Selinger 2001-2019
</metadata>
<g transform="translate(0.000000,512.000000) scale(0.100000,-0.100000)"
fill="#ffffff" stroke="none">
<path d="M29 4691 l-29 -29 0 -1224 c0 -1059 2 -1226 15 -1244 8 -12 61 -49
117 -82 404 -237 386 -229 448 -197 15 8 30 19 32 24 1 5 44 -24 95 -66 l92
-74 -1 -73 c-1 -90 22 -161 71 -224 44 -55 137 -109 204 -118 l45 -6 11 -57
c14 -68 58 -148 103 -186 41 -35 120 -71 173 -80 41 -6 41 -6 52 -66 26 -134
135 -238 273 -258 44 -6 45 -7 51 -51 15 -105 74 -188 171 -241 59 -32 69 -34
158 -34 125 0 164 20 292 143 l96 93 49 -34 c73 -51 108 -62 203 -62 66 0 96
5 132 22 63 29 134 97 164 155 23 45 27 48 52 41 50 -14 165 -9 214 10 90 35
173 123 198 211 l12 43 71 5 c154 10 283 126 304 273 5 39 10 46 32 51 145 29
227 91 277 209 18 42 24 156 12 213 l-8 32 147 73 c101 50 147 68 150 59 7
-18 58 -42 91 -42 17 0 78 29 158 76 71 42 175 103 232 136 56 33 109 70 117
82 13 18 15 185 15 1244 l0 1224 -29 29 c-37 37 -94 40 -137 7 -128 -98 -1376
-1132 -1388 -1150 -22 -31 -20 -90 4 -131 l21 -35 -23 -6 c-36 -9 -129 -7
-173 5 -22 6 -78 28 -125 49 -120 55 -187 70 -310 70 -110 0 -184 -14 -271
-51 -38 -17 -52 -19 -63 -10 -7 6 -51 26 -97 43 -80 31 -91 32 -229 33 -160 0
-181 -5 -343 -77 -117 -52 -193 -65 -301 -49 -95 14 -117 24 -98 43 17 17 15
89 -4 116 -12 18 -1261 1052 -1388 1150 -43 33 -100 30 -137 -7z m749 -770
l551 -453 -23 -37 c-444 -700 -800 -1259 -810 -1268 -9 -10 -42 6 -154 73
l-142 85 0 1035 c0 862 2 1034 13 1027 8 -4 262 -212 565 -462z m4142 -565 l0
-1035 -142 -85 c-78 -47 -145 -83 -149 -81 -10 7 -834 1306 -833 1312 2 6
1114 923 1120 923 2 0 4 -466 4 -1034z m-2533 -54 c9 -5 -46 -41 -154 -101
-199 -111 -222 -128 -267 -195 -128 -192 -62 -448 142 -548 62 -31 74 -33 167
-33 l100 0 349 128 349 129 459 -459 c253 -252 466 -470 474 -485 8 -15 14
-38 14 -51 0 -35 -40 -89 -81 -110 -74 -36 -68 -40 -506 396 l-402 400 -48 -6
c-64 -7 -93 -40 -93 -105 l0 -46 389 -391 c214 -214 394 -400 400 -412 6 -12
11 -38 11 -59 0 -52 -62 -114 -114 -114 -21 0 -47 5 -59 11 -12 6 -173 161
-357 345 l-336 334 -48 0 c-39 0 -53 -5 -77 -29 -23 -23 -29 -38 -29 -72 l0
-43 309 -311 c170 -170 314 -321 321 -334 17 -33 15 -87 -5 -117 -21 -32 -73
-64 -105 -64 -44 0 -90 38 -321 266 -223 221 -227 224 -268 224 -62 0 -101
-41 -101 -105 l0 -47 185 -188 185 -187 0 -46 c0 -34 -6 -53 -25 -75 -57 -68
-130 -67 -205 4 -43 40 -48 50 -58 110 -6 36 -20 85 -32 109 -28 57 -101 129
-154 151 l-41 17 0 101 c0 89 -3 107 -27 156 -47 96 -130 159 -239 182 l-57
12 -5 48 c-12 100 -89 197 -193 245 -43 19 -71 25 -132 25 -42 0 -90 -5 -105
-11 -40 -15 -41 -15 -59 23 -76 157 -279 227 -444 152 -27 -13 -80 -51 -116
-85 l-66 -61 -64 53 c-36 29 -77 63 -92 74 l-27 21 347 544 346 544 136 -24
c205 -36 350 -19 497 56 85 43 154 61 240 61 44 1 86 -3 92 -7z m704 -28 c30
-9 76 -28 104 -41 136 -70 283 -89 434 -58 70 14 85 15 92 3 5 -7 157 -245
337 -528 l329 -515 -144 -72 c-80 -40 -150 -73 -157 -73 -6 0 -205 194 -441
431 -237 237 -448 444 -469 460 -23 17 -52 29 -69 29 -16 0 -197 -62 -401
-137 -320 -118 -379 -137 -431 -138 -47 0 -67 5 -93 23 -46 34 -75 95 -69 148
9 88 21 97 354 282 170 93 331 177 358 185 67 21 198 21 266 1z m-1807 -1338
c79 -33 100 -120 47 -192 -32 -43 -102 -112 -141 -138 -66 -44 -171 8 -180 89
-6 53 3 70 73 142 108 113 136 126 201 99z m478 -197 c34 -18 58 -66 58 -115
l0 -47 -152 -153 c-128 -128 -159 -154 -190 -159 -80 -15 -158 63 -143 143 6
30 32 63 153 185 94 94 158 151 177 156 31 9 67 5 97 -10z m313 -323 c49 -21
77 -70 72 -125 -5 -42 -13 -53 -159 -198 -151 -150 -155 -153 -197 -153 -100
0 -161 94 -117 178 20 38 276 289 306 301 35 14 56 13 95 -3z m257 -453 c65
-66 53 -132 -44 -231 -88 -90 -134 -122 -175 -122 -78 0 -128 61 -124 149 1
25 178 215 216 232 36 16 96 3 127 -28z"/>
</g>
</svg>
