
<svg version="1.0" xmlns="http://www.w3.org/2000/svg"
 width="200.000000pt" height="200.000000pt" viewBox="0 0 200.000000 200.000000"
 preserveAspectRatio="xMidYMid meet">

<g transform="translate(0.000000,200.000000) scale(0.100000,-0.100000)"
fill="#FEC66E" stroke="none">
<path d="M67 1933 c-14 -13 -7 -90 9 -103 13 -12 15 -55 13 -339 -1 -305 0
-326 16 -326 16 0 17 21 16 328 l-2 327 185 0 c159 0 186 -2 186 -15 0 -13
-26 -15 -170 -15 l-170 0 2 -862 3 -863 845 0 845 0 3 862 2 863 -167 2 c-122
2 -167 6 -171 16 -3 9 42 12 201 12 231 0 230 0 225 72 l-3 43 -931 3 c-512 1
-934 -1 -937 -5z m1413 -128 c0 -13 -60 -15 -480 -15 -420 0 -480 2 -480 15 0
13 60 15 480 15 420 0 480 -2 480 -15z m-990 -140 c0 -12 -16 -15 -83 -15 -80
0 -84 -1 -95 -25 -7 -14 -12 -28 -12 -30 0 -3 43 -5 96 -5 72 0 95 -3 92 -12
-3 -9 -31 -14 -84 -16 -60 -2 -82 -7 -91 -19 -7 -9 -13 -20 -13 -25 0 -4 41
-9 92 -10 62 -2 93 -7 96 -15 3 -10 -18 -13 -81 -13 -80 0 -84 -1 -95 -25 -7
-14 -12 -28 -12 -30 0 -3 43 -5 95 -5 78 0 95 -3 95 -15 0 -12 -16 -15 -83
-15 -80 0 -84 -1 -95 -25 -7 -14 -12 -28 -12 -30 0 -3 43 -5 95 -5 78 0 95 -3
95 -15 0 -12 -16 -15 -83 -15 -80 0 -84 -1 -95 -25 -7 -14 -12 -28 -12 -30 0
-3 43 -5 95 -5 78 0 95 -3 95 -15 0 -12 -16 -15 -85 -15 -83 0 -86 -1 -95 -26
-6 -14 -10 -27 -10 -30 0 -2 43 -4 95 -4 78 0 95 -3 95 -15 0 -12 -16 -15 -85
-15 -73 0 -86 -3 -95 -19 -20 -38 -13 -41 85 -41 57 0 95 -4 95 -10 0 -6 -33
-10 -79 -10 -71 0 -82 -2 -95 -22 -9 -12 -16 -26 -16 -30 0 -5 43 -8 95 -8 88
0 95 -1 95 -20 0 -18 -7 -20 -83 -20 -80 0 -84 -1 -95 -25 -7 -14 -12 -28 -12
-30 0 -3 43 -5 95 -5 78 0 95 -3 95 -15 0 -12 -16 -15 -85 -15 -73 0 -86 -3
-95 -19 -20 -38 -13 -41 86 -41 72 0 95 -3 92 -12 -3 -9 -31 -14 -84 -16 -60
-2 -82 -7 -91 -19 -7 -9 -13 -20 -13 -25 0 -4 41 -9 92 -10 62 -2 93 -7 96
-15 3 -10 -18 -13 -81 -13 -80 0 -84 -1 -95 -25 -7 -14 -12 -28 -12 -30 0 -3
43 -5 95 -5 78 0 95 -3 95 -15 0 -12 -16 -15 -83 -15 -80 0 -84 -1 -95 -25 -7
-14 -12 -28 -12 -30 0 -3 144 -5 320 -5 l320 0 0 -175 0 -175 -340 0 -340 0 0
743 c0 409 3 747 7 750 3 4 55 7 115 7 89 0 108 -3 108 -15z m450 0 c0 -13
-30 -15 -210 -15 -180 0 -210 2 -210 15 0 13 30 15 210 15 180 0 210 -2 210
-15z m540 0 c0 -13 -30 -15 -210 -15 -180 0 -210 2 -210 15 0 13 30 15 210 15
180 0 210 -2 210 -15z m258 -737 l2 -748 -340 0 -340 0 0 175 0 175 320 0
c176 0 320 2 320 5 0 2 -5 16 -12 30 -11 24 -15 25 -95 25 -67 0 -83 3 -83 15
0 12 17 15 95 15 52 0 95 2 95 5 0 2 -5 16 -12 30 -11 24 -15 25 -95 25 -63 0
-84 3 -81 13 3 8 34 13 96 15 51 1 92 6 92 10 0 5 -6 16 -12 25 -10 12 -32 17
-92 19 -53 2 -81 7 -84 16 -3 9 20 12 92 12 99 0 106 3 86 41 -9 16 -22 19
-95 19 -69 0 -85 3 -85 15 0 12 17 15 95 15 52 0 95 2 95 5 0 2 -5 16 -12 30
-11 24 -15 25 -95 25 -67 0 -83 3 -83 15 0 12 17 15 95 15 52 0 95 2 95 5 0 2
-5 16 -12 30 -11 24 -15 25 -95 25 -67 0 -83 3 -83 15 0 12 17 15 95 15 52 0
95 2 95 5 0 2 -5 16 -12 30 -11 24 -15 25 -95 25 -67 0 -83 3 -83 15 0 12 17
15 95 15 52 0 95 3 95 8 0 4 -7 18 -16 30 -13 20 -24 22 -95 22 -60 0 -80 3
-77 13 3 8 34 13 96 15 51 1 92 6 92 10 0 5 -6 16 -12 25 -10 12 -32 17 -92
19 -53 2 -81 7 -84 16 -3 9 20 12 92 12 99 0 106 3 86 41 -9 16 -22 19 -95 19
-78 0 -85 2 -85 20 0 19 7 20 95 20 52 0 95 2 95 5 0 2 -5 16 -12 30 -11 24
-15 25 -95 25 -63 0 -84 3 -81 13 3 8 34 13 96 15 51 1 92 6 92 10 0 5 -6 16
-12 25 -10 12 -32 17 -92 19 -53 2 -81 7 -84 16 -3 9 20 12 92 12 99 0 106 3
86 41 -9 16 -22 19 -95 19 -70 0 -85 3 -85 15 0 13 17 15 113 13 l112 -3 3
-747z m-798 647 c0 -13 -30 -15 -210 -15 -180 0 -210 2 -210 15 0 13 30 15
210 15 180 0 210 -2 210 -15z m540 0 c0 -13 -30 -15 -210 -15 -180 0 -210 2
-210 15 0 13 30 15 210 15 180 0 210 -2 210 -15z m-540 -80 c0 -13 -30 -15
-210 -15 -180 0 -210 2 -210 15 0 13 30 15 210 15 180 0 210 -2 210 -15z m540
0 c0 -13 -30 -15 -210 -15 -180 0 -210 2 -210 15 0 13 30 15 210 15 180 0 210
-2 210 -15z m-540 -90 c0 -13 -30 -15 -210 -15 -180 0 -210 2 -210 15 0 13 30
15 210 15 180 0 210 -2 210 -15z m540 0 c0 -13 -30 -15 -210 -15 -180 0 -210
2 -210 15 0 13 30 15 210 15 180 0 210 -2 210 -15z m-540 -90 c0 -13 -30 -15
-210 -15 -180 0 -210 2 -210 15 0 13 30 15 210 15 180 0 210 -2 210 -15z m540
0 c0 -13 -30 -15 -210 -15 -180 0 -210 2 -210 15 0 13 30 15 210 15 180 0 210
-2 210 -15z m-540 -90 c0 -13 -30 -15 -210 -15 -180 0 -210 2 -210 15 0 13 30
15 210 15 180 0 210 -2 210 -15z m540 0 c0 -13 -30 -15 -210 -15 -180 0 -210
2 -210 15 0 13 30 15 210 15 180 0 210 -2 210 -15z m-540 -90 c0 -13 -30 -15
-210 -15 -180 0 -210 2 -210 15 0 13 30 15 210 15 180 0 210 -2 210 -15z m540
0 c0 -13 -30 -15 -210 -15 -180 0 -210 2 -210 15 0 13 30 15 210 15 180 0 210
-2 210 -15z m-540 -90 c0 -13 -30 -15 -210 -15 -180 0 -210 2 -210 15 0 13 30
15 210 15 180 0 210 -2 210 -15z m540 0 c0 -13 -30 -15 -210 -15 -180 0 -210
2 -210 15 0 13 30 15 210 15 180 0 210 -2 210 -15z m-540 -90 c0 -13 -30 -15
-210 -15 -180 0 -210 2 -210 15 0 13 30 15 210 15 180 0 210 -2 210 -15z m540
0 c0 -13 -30 -15 -210 -15 -180 0 -210 2 -210 15 0 13 30 15 210 15 180 0 210
-2 210 -15z m-540 -90 c0 -13 -30 -15 -210 -15 -180 0 -210 2 -210 15 0 13 30
15 210 15 180 0 210 -2 210 -15z m540 0 c0 -13 -30 -15 -210 -15 -180 0 -210
2 -210 15 0 13 30 15 210 15 180 0 210 -2 210 -15z m-540 -90 c0 -13 -30 -15
-210 -15 -180 0 -210 2 -210 15 0 13 30 15 210 15 180 0 210 -2 210 -15z m540
0 c0 -13 -30 -15 -210 -15 -180 0 -210 2 -210 15 0 13 30 15 210 15 180 0 210
-2 210 -15z m-540 -80 c0 -13 -30 -15 -210 -15 -180 0 -210 2 -210 15 0 13 30
15 210 15 180 0 210 -2 210 -15z m540 0 c0 -13 -30 -15 -210 -15 -180 0 -210
2 -210 15 0 13 30 15 210 15 180 0 210 -2 210 -15z m-540 -90 c0 -13 -30 -15
-210 -15 -180 0 -210 2 -210 15 0 13 30 15 210 15 180 0 210 -2 210 -15z m540
0 c0 -13 -30 -15 -210 -15 -180 0 -210 2 -210 15 0 13 30 15 210 15 180 0 210
-2 210 -15z"/>
</g>
</svg>
