<svg xmlns="http://www.w3.org/2000/svg" viewBox="0 0 33 33"><defs><style>.a,.b,.d,.e{fill:none;}.a,.b,.c,.d,.e{stroke:#fff;stroke-linejoin:round;}.a,.c{stroke-linecap:round;}.a,.b{stroke-width:0.4px;}.c{fill:#FFC66E;}.c,.e{stroke-width:0.3px;}.d{stroke-width:0.8px;}.f{fill:#FFC66E;}.g{fill:transparent;}</style></defs><title>filter-pole-type-eyelet</title><path class="a" d="M13.00544,16.33783a5.34364,5.34364,0,0,1-2.25106,4.3634c-.44206.31439.45365-2.05872.46063-4.43015.00677-2.30014-.88847-4.60107-.4596-4.29591A5.34361,5.34361,0,0,1,13.00544,16.33783Z"/><path class="a" d="M11.21426,16.33151a11.43586,11.43586,0,0,0-.65114-4.03971,5.13483,5.13483,0,0,0-2.763-.80361,4.85043,4.85043,0,0,0,0,9.70083,5.1352,5.1352,0,0,0,2.76127-.80254A11.77259,11.77259,0,0,0,11.21426,16.33151Z"/><path class="b" d="M15.88241,19.08218H13.64158a19.069,19.069,0,0,0,.15548-2.90477,13.00119,13.00119,0,0,0-.15548-2.58243h2.24083s.14413,1.32378.14413,2.75807S15.88241,19.08218,15.88241,19.08218Z"/><path class="b" d="M31.32631,18.49459l-15.39661,0s.06555-.69409.06555-2.28269a18.88173,18.88173,0,0,0-.06555-2.02939l15.39661,0Z"/><path class="c" d="M13.63512,19.08219,12.996,17.99933a.81059.81059,0,0,1-.09787-.58029,5.28844,5.28844,0,0,0,.00116-2.16076.81092.81092,0,0,1,.09752-.5818l.63831-1.08149a14.88851,14.88851,0,0,1,.15536,2.72782A15.56305,15.56305,0,0,1,13.63512,19.08219Z"/><path class="d" d="M18.34163,14.18262c.22549-.51947.50688-.82785.81207-.82786.74142,0,1.34245,1.82,1.34245,4.06521s-.601,4.06524-1.34245,4.06525c-.61857,0-1.13942-1.26687-1.295-2.99053"/><ellipse class="e" cx="19.1774" cy="22.53363" rx="0.29257" ry="1.12032"/><path class="d" d="M22.6849,14.18262c.22549-.51947.50688-.82785.81207-.82785.74142,0,1.34245,1.82006,1.34245,4.06523s-.601,4.06523-1.34245,4.06523c-.61857,0-1.13942-1.26688-1.295-2.99055"/><ellipse class="e" cx="23.52067" cy="22.53364" rx="0.29257" ry="1.12032"/><path class="d" d="M27.1598,14.18262c.22549-.51947.50688-.82785.81207-.82785.74142,0,1.34245,1.82006,1.34245,4.06523s-.601,4.06523-1.34245,4.06523c-.61857,0-1.13942-1.26688-1.295-2.99055"/><ellipse class="e" cx="27.99557" cy="22.53364" rx="0.29257" ry="1.12032"/><path class="f" d="M27.13558,2a3.85016,3.85016,0,0,1,3.845,3.84164L31,27.13184a3.8452,3.8452,0,0,1-3.84166,3.84869L5.86453,31a3.8502,3.8502,0,0,1-3.84508-3.84164L2,5.86816A3.8452,3.8452,0,0,1,5.84169,2.01947L27.131,2h.00462m-.0001-1H27.131L5.84078,1.01947A4.84519,4.84519,0,0,0,1,5.86908l.01942,21.29019A4.8451,4.8451,0,0,0,5.86453,32H5.869l21.29018-.01947A4.84519,4.84519,0,0,0,32,27.13092L31.98055,5.84073A4.84507,4.84507,0,0,0,27.13548,1Z"/><path class="g" d="M27.13548,1a4.84507,4.84507,0,0,1,4.84507,4.84073L32,27.13092a4.84519,4.84519,0,0,1-4.84075,4.84961L5.869,32H5.86453a4.8451,4.8451,0,0,1-4.84508-4.84073L1,5.869A4.84515,4.84515,0,0,1,5.84075,1.01947L27.131,1h.00451m.0001-1H27.131L5.83984.01947A5.85178,5.85178,0,0,0,0,5.87L.01945,27.16019A5.85284,5.85284,0,0,0,5.86453,33l21.2956-.01947A5.84518,5.84518,0,0,0,33,27.13L32.98055,5.83981A5.8528,5.8528,0,0,0,27.13558,0Z"/></svg>