
<svg version="1.0" xmlns="http://www.w3.org/2000/svg"
 width="256.000000pt" height="256.000000pt" viewBox="0 0 256.000000 256.000000"
 preserveAspectRatio="xMidYMid meet">
<metadata>
Created by potrace 1.16, written by Peter Selinger 2001-2019
</metadata>
<g transform="translate(0.000000,256.000000) scale(0.100000,-0.100000)"
fill="rgba(255,187,51, 1)" stroke="none">
<path d="M845 2393 c-314 -67 -567 -302 -656 -609 -65 -228 -32 -494 87 -699
58 -99 210 -253 304 -308 303 -175 677 -165 959 27 l55 37 28 -28 c26 -26 27
-31 17 -68 -16 -57 -5 -136 27 -195 17 -31 87 -109 188 -208 134 -132 169
-161 210 -175 185 -63 346 46 346 234 0 102 -24 139 -207 320 -92 91 -176 166
-202 179 -54 27 -133 36 -186 21 -38 -10 -42 -9 -69 18 l-29 29 30 39 c66 84
117 195 149 328 23 94 24 295 1 389 -85 346 -343 599 -683 671 -88 19 -278 18
-369 -2z m359 -173 c111 -28 224 -90 311 -172 374 -349 276 -951 -190 -1168
-110 -52 -172 -65 -300 -65 -198 1 -343 63 -491 210 -75 74 -99 106 -136 182
-63 126 -82 216 -75 357 8 163 55 287 156 412 103 128 276 231 431 257 73 12
221 6 294 -13z m714 -1474 c15 -8 93 -81 175 -163 124 -127 147 -154 147 -180
0 -47 -34 -83 -78 -83 -34 0 -48 12 -199 163 -144 144 -163 166 -163 195 0 38
38 82 70 82 12 0 33 -6 48 -14z"/>
<path d="M980 1980 c-19 -19 -20 -33 -20 -200 l0 -180 -180 0 c-167 0 -181 -1
-200 -20 -13 -13 -20 -33 -20 -60 0 -27 7 -47 20 -60 19 -19 33 -20 200 -20
l180 0 0 -180 c0 -167 1 -181 20 -200 27 -27 93 -27 120 0 19 19 20 33 20 200
l0 180 180 0 c167 0 181 1 200 20 13 13 20 33 20 60 0 27 -7 47 -20 60 -19 19
-33 20 -200 20 l-180 0 0 180 c0 167 -1 181 -20 200 -13 13 -33 20 -60 20 -27
0 -47 -7 -60 -20z"/>
</g>
</svg>
