
<svg version="1.0" xmlns="http://www.w3.org/2000/svg"
 width="512.000000pt" height="512.000000pt" viewBox="0 0 512.000000 512.000000"
 preserveAspectRatio="xMidYMid meet">
<metadata>
Created by potrace 1.16, written by Peter Selinger 2001-2019
</metadata>
<g transform="translate(0.000000,512.000000) scale(0.100000,-0.100000)"
fill="#ffffff" stroke="none">
<path d="M1989 5105 c-345 -58 -645 -213 -886 -457 -243 -245 -391 -538 -448
-885 -8 -50 -15 -157 -15 -249 l0 -160 -271 -490 -270 -489 5 -58 c16 -169
127 -274 312 -296 85 -11 150 -31 196 -63 l28 -19 0 -213 c0 -243 7 -279 71
-375 50 -75 130 -134 217 -161 59 -18 94 -20 421 -20 267 0 362 -3 381 -13 14
-7 36 -33 50 -57 l25 -45 3 -480 c1 -264 5 -491 7 -503 3 -13 18 -35 32 -48
l26 -24 343 0 344 0 0 110 0 110 -265 0 -265 0 0 413 c0 372 -2 421 -19 485
-31 119 -86 192 -184 244 -41 22 -51 23 -432 28 -371 5 -392 6 -430 26 -22 11
-53 40 -70 63 l-30 43 -5 256 c-6 299 -1 285 -113 359 -87 58 -172 89 -278
103 -88 11 -123 27 -134 60 -5 16 60 142 259 503 l266 482 0 172 c0 124 5 203
19 285 100 584 554 1038 1135 1138 109 18 163 20 707 20 l589 0 0 110 0 110
-622 -1 c-455 -1 -643 -5 -699 -14z"/>
<path d="M3853 5104 c-45 -22 -82 -62 -104 -109 -18 -38 -19 -133 -19 -2435 0
-2302 1 -2397 19 -2435 22 -48 60 -87 105 -109 30 -14 96 -16 518 -16 448 0
486 2 524 19 51 23 99 81 113 137 16 61 16 4747 0 4808 -14 56 -62 114 -113
137 -38 17 -76 19 -526 19 -423 0 -489 -2 -517 -16z m947 -2544 l0 -2340 -425
0 -425 0 0 155 0 155 215 0 215 0 0 110 0 110 -215 0 -215 0 0 210 0 210 265
0 265 0 0 110 0 110 -265 0 -265 0 0 210 0 210 215 0 215 0 0 110 0 110 -215
0 -215 0 0 210 0 210 265 0 265 0 0 110 0 110 -265 0 -265 0 0 210 0 210 215
0 215 0 0 110 0 110 -215 0 -215 0 0 210 0 210 265 0 265 0 0 110 0 110 -265
0 -265 0 0 210 0 210 215 0 215 0 0 110 0 110 -215 0 -215 0 0 155 0 155 425
0 425 0 0 -2340z"/>
<path d="M3143 4570 c-21 -12 -73 -80 -148 -192 l-115 -173 0 -2073 0 -2074
29 -29 29 -29 262 0 262 0 29 29 29 29 0 2074 0 2073 -115 173 c-117 175 -153
212 -205 212 -14 0 -39 -9 -57 -20z m110 -373 l47 -73 0 -1687 0 -1687 -100 0
-100 0 0 1687 0 1687 48 73 c26 40 49 73 52 73 3 0 26 -33 53 -73z m47 -3822
l0 -155 -100 0 -100 0 0 155 0 155 100 0 100 0 0 -155z"/>
</g>
</svg>
